<svg width="80" height="70" viewBox="0 0 80 70" fill="none" xmlns="http://www.w3.org/2000/svg">
<g filter="url(#filter0_d_451_2621)">
<rect x="3" y="10.6665" width="74" height="54.3338" rx="5" fill="#6385FF"/>
</g>
<path d="M55.0026 19.5655C54.4151 18.8332 54.4159 17.7909 55.0046 17.0598L63.1911 6.89063C64.3752 5.41983 66.7506 6.25849 66.7491 8.14682L66.7332 28.5004C66.7317 30.3887 64.355 31.2229 63.1733 29.7499L55.0026 19.5655Z" fill="#6385FF"/>
<g filter="url(#filter1_d_451_2621)">
<path d="M25 27.2686L39.8051 22L55.0087 27.175L52.5471 46.7392L39.8051 53.7874L27.2624 46.8328L25 27.2686Z" fill="#E23237"/>
<path d="M55.0086 27.175L39.8049 22V53.7874L52.5469 46.7509L55.0086 27.175Z" fill="#B52E31"/>
<path d="M39.8285 25.7114L30.6031 46.2123L34.0495 46.1537L35.9016 41.529H39.8402H39.8519H44.1774L46.2053 46.2123L49.4993 46.2708L39.8285 25.7114ZM39.8519 32.2797L42.97 38.7893H39.9809H39.8285H37.1089L39.8519 32.2797Z" fill="white"/>
</g>
<defs>
<filter id="filter0_d_451_2621" x="0" y="9.6665" width="80" height="60.334" filterUnits="userSpaceOnUse" color-interpolation-filters="sRGB">
<feFlood flood-opacity="0" result="BackgroundImageFix"/>
<feColorMatrix in="SourceAlpha" type="matrix" values="0 0 0 0 0 0 0 0 0 0 0 0 0 0 0 0 0 0 127 0" result="hardAlpha"/>
<feOffset dy="2"/>
<feGaussianBlur stdDeviation="1.5"/>
<feComposite in2="hardAlpha" operator="out"/>
<feColorMatrix type="matrix" values="0 0 0 0 0 0 0 0 0 0 0 0 0 0 0 0 0 0 0.25 0"/>
<feBlend mode="normal" in2="BackgroundImageFix" result="effect1_dropShadow_451_2621"/>
<feBlend mode="normal" in="SourceGraphic" in2="effect1_dropShadow_451_2621" result="shape"/>
</filter>
<filter id="filter1_d_451_2621" x="21" y="20" width="38.0087" height="39.7876" filterUnits="userSpaceOnUse" color-interpolation-filters="sRGB">
<feFlood flood-opacity="0" result="BackgroundImageFix"/>
<feColorMatrix in="SourceAlpha" type="matrix" values="0 0 0 0 0 0 0 0 0 0 0 0 0 0 0 0 0 0 127 0" result="hardAlpha"/>
<feOffset dy="2"/>
<feGaussianBlur stdDeviation="2"/>
<feComposite in2="hardAlpha" operator="out"/>
<feColorMatrix type="matrix" values="0 0 0 0 0 0 0 0 0 0 0 0 0 0 0 0 0 0 0.25 0"/>
<feBlend mode="normal" in2="BackgroundImageFix" result="effect1_dropShadow_451_2621"/>
<feBlend mode="normal" in="SourceGraphic" in2="effect1_dropShadow_451_2621" result="shape"/>
</filter>
</defs>
</svg>
