<svg width="80" height="66" viewBox="0 0 80 66" fill="none" xmlns="http://www.w3.org/2000/svg">
<g filter="url(#filter0_d_451_2610)">
<rect x="3" y="1" width="74" height="53.9189" rx="5" fill="#9EDCF2"/>
</g>
<path d="M56.2529 49.3227C55.553 48.5576 55.5541 47.3844 56.2553 46.6204L65.8464 36.1711C67.08 34.8271 69.3214 35.7008 69.3198 37.5251L69.3012 58.4396C69.2995 60.2638 67.0566 61.1338 65.8254 59.7878L56.2529 49.3227Z" fill="#9EDCF2"/>
<g filter="url(#filter1_d_451_2610)">
<path d="M51.2861 22.8438C50.9544 22.734 50.6107 22.6302 50.2569 22.532C50.3151 22.3038 50.3684 22.0786 50.4159 21.8572C51.195 18.2216 50.6856 15.2928 48.9462 14.3285C47.2784 13.4038 44.5508 14.3679 41.7961 16.6727C41.5311 16.8943 41.2655 17.129 41 17.3749C40.8231 17.2122 40.6464 17.0549 40.4702 16.9045C37.5832 14.4401 34.6894 13.4016 32.9517 14.3687C31.2855 15.296 30.792 18.0494 31.4933 21.4948C31.561 21.8276 31.6402 22.1675 31.7297 22.513C31.3201 22.6248 30.9247 22.7439 30.5464 22.8707C27.1617 24.0052 25 25.7832 25 27.6275C25 29.5323 27.3205 31.4429 30.846 32.6013C31.1243 32.6927 31.4129 32.7792 31.7105 32.8612C31.6139 33.235 31.5299 33.6012 31.4594 33.9584C30.7907 37.344 31.3129 40.0324 32.9747 40.9538C34.6912 41.9054 37.5719 40.9273 40.377 38.57C40.5987 38.3837 40.8212 38.186 41.0441 37.9789C41.3331 38.2464 41.6215 38.4995 41.9084 38.737C44.6255 40.9848 47.3091 41.8925 48.9693 40.9684C50.6841 40.0141 51.2414 37.1262 50.5179 33.6126C50.4626 33.3442 50.3983 33.0701 50.3261 32.791C50.5284 32.7335 50.727 32.6742 50.9207 32.6125C54.5857 31.445 56.9704 29.5578 56.9704 27.6275C56.9704 25.7766 54.739 23.9865 51.2861 22.8438ZM50.4911 31.3662C50.3163 31.4218 50.1369 31.4756 49.9542 31.5277C49.5495 30.2963 49.0035 28.9868 48.3352 27.6339C48.9729 26.3132 49.4979 25.0205 49.8912 23.7971C50.2182 23.8881 50.5356 23.984 50.8415 24.0853C53.8 25.0644 55.6046 26.5121 55.6046 27.6275C55.6046 28.8157 53.6557 30.3581 50.4911 31.3662ZM49.1781 33.8676C49.498 35.4212 49.5437 36.8259 49.3318 37.924C49.1414 38.9108 48.7584 39.5686 48.285 39.8321C47.2774 40.3928 45.1228 39.664 42.7991 37.7416C42.5328 37.5213 42.2645 37.286 41.9953 37.0369C42.8961 36.0898 43.7964 34.9886 44.6751 33.7657C46.2207 33.6339 47.6808 33.4183 49.005 33.1241C49.0702 33.377 49.1282 33.625 49.1781 33.8676ZM35.8994 39.7352C34.915 40.0694 34.131 40.079 33.6571 39.8163C32.6487 39.2571 32.2294 37.0987 32.8013 34.2032C32.8668 33.8717 32.9448 33.531 33.0346 33.1829C34.3443 33.4613 35.7937 33.6616 37.343 33.7824C38.2276 34.979 39.1539 36.0789 40.0874 37.042C39.8835 37.2313 39.6803 37.4115 39.4783 37.5813C38.2379 38.6237 36.9949 39.3633 35.8994 39.7352ZM31.2877 31.3589C29.7288 30.8466 28.4414 30.1809 27.559 29.4544C26.766 28.8016 26.3657 28.1534 26.3657 27.6275C26.3657 26.5083 28.1013 25.0808 30.996 24.1106C31.3472 23.9928 31.7149 23.8819 32.0965 23.7777C32.4965 25.0287 33.0213 26.3368 33.6546 27.6595C33.0131 29.0018 32.4809 30.3307 32.0769 31.5964C31.8049 31.5213 31.5413 31.4421 31.2877 31.3589ZM32.8336 21.2427C32.2328 18.2907 32.6318 16.0638 33.636 15.505C34.7055 14.9097 37.0706 15.7585 39.5634 17.8864C39.7227 18.0224 39.8827 18.1648 40.0431 18.312C39.1142 19.2709 38.1964 20.3626 37.3196 21.5522C35.816 21.6861 34.3767 21.9014 33.0534 22.1896C32.9702 21.8678 32.8965 21.5517 32.8336 21.2427ZM46.6242 24.5164C46.3079 23.9911 45.9831 23.4782 45.652 22.9793C46.6721 23.1033 47.6494 23.2678 48.5672 23.4692C48.2916 24.3182 47.9482 25.2058 47.5439 26.1158C47.2539 25.5865 46.9472 25.0528 46.6242 24.5164ZM41.0004 19.2504C41.6304 19.9065 42.2613 20.6391 42.8818 21.4339C42.2565 21.4055 41.6235 21.3907 40.9852 21.3907C40.353 21.3907 39.7246 21.4052 39.1032 21.4331C39.7243 20.6456 40.3606 19.9141 41.0004 19.2504ZM35.3407 24.5255C35.0246 25.0523 34.7236 25.5831 34.4382 26.1148C34.0404 25.208 33.7002 24.3163 33.4223 23.4553C34.3344 23.2591 35.3071 23.0986 36.3207 22.977C35.985 23.4805 35.6575 23.9972 35.3407 24.5254V24.5255ZM36.3499 32.3717C35.3027 32.2594 34.3154 32.1072 33.4034 31.9164C33.6858 31.04 34.0336 30.1292 34.4397 29.2029C34.7259 29.7343 35.0281 30.2653 35.3461 30.7932H35.3461C35.67 31.3311 36.0055 31.8579 36.3499 32.3717ZM41.0382 36.0972C40.3909 35.4258 39.7452 34.683 39.1147 33.8841C39.7268 33.9072 40.3509 33.919 40.9852 33.919C41.6368 33.919 42.281 33.9049 42.9151 33.8778C42.2925 34.6911 41.6639 35.435 41.0382 36.0972ZM47.557 29.1557C47.9843 30.092 48.3445 30.998 48.6305 31.8595C47.7035 32.0628 46.7027 32.2265 45.6482 32.3482C45.9801 31.8426 46.3077 31.3209 46.6297 30.7842C46.9553 30.2413 47.2646 29.6975 47.557 29.1557ZM45.4466 30.1283C44.9469 30.9613 44.4338 31.7566 43.9129 32.5072C42.9642 32.5724 41.9841 32.606 40.9852 32.606C39.9903 32.606 39.0225 32.5763 38.0906 32.5182C37.5488 31.7576 37.0245 30.9601 36.528 30.1354H36.5281C36.0328 29.313 35.577 28.4837 35.164 27.659C35.5769 26.8324 36.0315 26.0022 36.5239 25.1813L36.5238 25.1814C37.0175 24.3583 37.5371 23.5646 38.074 22.8089C39.0248 22.7398 39.9998 22.7037 40.9851 22.7037H40.9852C41.975 22.7037 42.9512 22.7401 43.9017 22.8098C44.4304 23.56 44.9465 24.3511 45.4421 25.1743C45.9434 26.0068 46.4039 26.8315 46.8204 27.6404C46.4052 28.4631 45.9457 29.2962 45.4466 30.1283ZM48.264 15.466C49.3346 16.0595 49.7509 18.4532 49.0783 21.5922C49.0354 21.7924 48.9871 21.9965 48.9346 22.2032C47.6082 21.909 46.1679 21.69 44.6599 21.554C43.7815 20.3514 42.8711 19.258 41.9574 18.3114C42.203 18.0842 42.4484 17.8676 42.6927 17.6631C45.0529 15.6884 47.2589 14.9088 48.264 15.466ZM40.9852 24.8829C42.5618 24.8829 43.84 26.1117 43.84 27.6275C43.84 29.1433 42.5618 30.3721 40.9852 30.3721C39.4085 30.3721 38.1303 29.1433 38.1303 27.6275C38.1303 26.1117 39.4085 24.8829 40.9852 24.8829Z" fill="white"/>
</g>
<defs>
<filter id="filter0_d_451_2610" x="0" y="0" width="80" height="59.9189" filterUnits="userSpaceOnUse" color-interpolation-filters="sRGB">
<feFlood flood-opacity="0" result="BackgroundImageFix"/>
<feColorMatrix in="SourceAlpha" type="matrix" values="0 0 0 0 0 0 0 0 0 0 0 0 0 0 0 0 0 0 127 0" result="hardAlpha"/>
<feOffset dy="2"/>
<feGaussianBlur stdDeviation="1.5"/>
<feComposite in2="hardAlpha" operator="out"/>
<feColorMatrix type="matrix" values="0 0 0 0 0 0 0 0 0 0 0 0 0 0 0 0 0 0 0.25 0"/>
<feBlend mode="normal" in2="BackgroundImageFix" result="effect1_dropShadow_451_2610"/>
<feBlend mode="normal" in="SourceGraphic" in2="effect1_dropShadow_451_2610" result="shape"/>
</filter>
<filter id="filter1_d_451_2610" x="21" y="12.9805" width="39.9703" height="35.3457" filterUnits="userSpaceOnUse" color-interpolation-filters="sRGB">
<feFlood flood-opacity="0" result="BackgroundImageFix"/>
<feColorMatrix in="SourceAlpha" type="matrix" values="0 0 0 0 0 0 0 0 0 0 0 0 0 0 0 0 0 0 127 0" result="hardAlpha"/>
<feOffset dy="3"/>
<feGaussianBlur stdDeviation="2"/>
<feComposite in2="hardAlpha" operator="out"/>
<feColorMatrix type="matrix" values="0 0 0 0 0 0 0 0 0 0 0 0 0 0 0 0 0 0 0.25 0"/>
<feBlend mode="normal" in2="BackgroundImageFix" result="effect1_dropShadow_451_2610"/>
<feBlend mode="normal" in="SourceGraphic" in2="effect1_dropShadow_451_2610" result="shape"/>
</filter>
</defs>
</svg>
