<svg width="80" height="72" viewBox="0 0 80 72" fill="none" xmlns="http://www.w3.org/2000/svg">
<g filter="url(#filter0_d_451_2636)">
<rect x="3" y="12.9971" width="74" height="53.9189" rx="5" fill="#00506C"/>
</g>
<path d="M56.2529 19.3662C55.553 18.601 55.5541 17.4279 56.2553 16.6639L65.8464 6.21452C67.08 4.87054 69.3214 5.7443 69.3198 7.56852L69.3012 28.483C69.2995 30.3072 67.0566 31.1773 65.8254 29.8313L56.2529 19.3662Z" fill="#00506C"/>
<g filter="url(#filter1_d_451_2636)">
<path d="M39.5 31C35.3667 31 32.7833 33.1111 31.75 37.3333C33.3 35.2222 35.1083 34.4306 37.175 34.9583C38.3541 35.2595 39.1969 36.1333 40.1298 37.1006C41.6495 38.6763 43.4084 40.5 47.25 40.5C51.3833 40.5 53.9667 38.3889 55 34.1667C53.45 36.2778 51.6417 37.0694 49.575 36.5417C48.3959 36.2405 47.5531 35.3667 46.6202 34.3994C45.1005 32.8237 43.3416 31 39.5 31ZM31.75 40.5C27.6167 40.5 25.0333 42.6111 24 46.8333C25.55 44.7222 27.3583 43.9306 29.425 44.4583C30.6041 44.7595 31.4469 45.6333 32.3798 46.6006C33.8995 48.1763 35.6584 50 39.5 50C43.6333 50 46.2167 47.8889 47.25 43.6667C45.7 45.7778 43.8917 46.5694 41.825 46.0417C40.6459 45.7405 39.8031 44.8667 38.8702 43.8994C37.3505 42.3237 35.5916 40.5 31.75 40.5Z" fill="url(#paint0_linear_451_2636)"/>
</g>
<defs>
<filter id="filter0_d_451_2636" x="0" y="11.9971" width="80" height="59.9189" filterUnits="userSpaceOnUse" color-interpolation-filters="sRGB">
<feFlood flood-opacity="0" result="BackgroundImageFix"/>
<feColorMatrix in="SourceAlpha" type="matrix" values="0 0 0 0 0 0 0 0 0 0 0 0 0 0 0 0 0 0 127 0" result="hardAlpha"/>
<feOffset dy="2"/>
<feGaussianBlur stdDeviation="1.5"/>
<feComposite in2="hardAlpha" operator="out"/>
<feColorMatrix type="matrix" values="0 0 0 0 0 0 0 0 0 0 0 0 0 0 0 0 0 0 0.25 0"/>
<feBlend mode="normal" in2="BackgroundImageFix" result="effect1_dropShadow_451_2636"/>
<feBlend mode="normal" in="SourceGraphic" in2="effect1_dropShadow_451_2636" result="shape"/>
</filter>
<filter id="filter1_d_451_2636" x="20" y="31" width="39" height="27" filterUnits="userSpaceOnUse" color-interpolation-filters="sRGB">
<feFlood flood-opacity="0" result="BackgroundImageFix"/>
<feColorMatrix in="SourceAlpha" type="matrix" values="0 0 0 0 0 0 0 0 0 0 0 0 0 0 0 0 0 0 127 0" result="hardAlpha"/>
<feOffset dy="4"/>
<feGaussianBlur stdDeviation="2"/>
<feComposite in2="hardAlpha" operator="out"/>
<feColorMatrix type="matrix" values="0 0 0 0 0 0 0 0 0 0 0 0 0 0 0 0 0 0 0.25 0"/>
<feBlend mode="normal" in2="BackgroundImageFix" result="effect1_dropShadow_451_2636"/>
<feBlend mode="normal" in="SourceGraphic" in2="effect1_dropShadow_451_2636" result="shape"/>
</filter>
<linearGradient id="paint0_linear_451_2636" x1="31.5186" y1="146.096" x2="58.5734" y2="161.367" gradientUnits="userSpaceOnUse">
<stop stop-color="#2298BD"/>
<stop offset="1" stop-color="#0ED7B5"/>
</linearGradient>
</defs>
</svg>
