<svg width="62" height="56" viewBox="0 0 62 56" fill="none" xmlns="http://www.w3.org/2000/svg">
<g clip-path="url(#clip0_805_1615)">
<path d="M31 33.9258C34.2611 33.9258 36.9047 31.2727 36.9047 27.9999C36.9047 24.7271 34.2611 22.074 31 22.074C27.7389 22.074 25.0952 24.7271 25.0952 27.9999C25.0952 31.2727 27.7389 33.9258 31 33.9258Z" fill="#0094BF"/>
<path d="M31 41.3334C47.3056 41.3334 60.5238 35.3639 60.5238 28.0001C60.5238 20.6363 47.3056 14.6667 31 14.6667C14.6945 14.6667 1.4762 20.6363 1.4762 28.0001C1.4762 35.3639 14.6945 41.3334 31 41.3334Z" stroke="#0094BF"/>
<path d="M19.4943 34.6667C27.647 48.8383 39.4075 57.3419 45.7619 53.66C52.1164 49.9781 50.6586 35.505 42.5058 21.3334C34.353 7.16172 22.5926 -1.34189 16.2381 2.34001C9.88367 6.02191 11.3415 20.4951 19.4943 34.6667Z" stroke="#0094BF"/>
<path d="M19.4943 21.3333C11.3415 35.5049 9.88367 49.9781 16.2381 53.6599C22.5926 57.3418 34.353 48.8382 42.5058 34.6666C50.6586 20.495 52.1164 6.02182 45.7619 2.33992C39.4075 -1.34197 27.647 7.16164 19.4943 21.3333Z" stroke="#0094BF"/>
</g>
<defs>
<clipPath id="clip0_805_1615">
<rect width="62" height="56" fill="white"/>
</clipPath>
</defs>
</svg>
