<svg width="80" height="80" viewBox="0 0 80 80" fill="none" xmlns="http://www.w3.org/2000/svg">
<path d="M39.951 80L7.28049 72.0029L0 0H80L72.7118 71.9916L39.951 80Z" fill="#264DE4"/>
<path d="M66.4723 67.4074L72.7005 5.88721H40V73.8787L66.4723 67.4074Z" fill="#2965F1"/>
<path d="M16.6904 32.592L17.5881 41.4228H40.0001V32.592H16.6904Z" fill="#EBEBEB"/>
<path d="M14.8867 14.7183L15.7971 23.5492H40V14.7183H14.8867Z" fill="#EBEBEB"/>
<path d="M39.9997 55.5267L39.9558 55.5371L28.8018 52.8814L28.0888 45.8384H18.0352L19.4383 59.7041L39.9536 64.7258L39.9997 64.7146V55.5267Z" fill="#EBEBEB"/>
<path d="M63.2459 32.5921L65.054 14.7183H39.9658V23.5492H54.0782L53.1669 32.5921H39.9658V41.4229H52.2984L51.1359 52.8759L39.9658 55.5342V64.7217L60.4975 59.7042L60.6481 58.2123L63.0015 34.9635L63.2459 32.5921Z" fill="white"/>
</svg>
