<svg width="48" height="48" viewBox="0 0 48 48" fill="none" xmlns="http://www.w3.org/2000/svg">
<g clip-path="url(#clip0_804_1467)">
<path d="M24.0002 0C10.7469 0 0 11.0029 0 24.5762C0 35.4346 6.87675 44.6469 16.4128 47.8965C17.6123 48.124 18.0527 47.3633 18.0527 46.7142C18.0527 46.1282 18.0302 44.1923 18.0201 42.1388C11.3432 43.6253 9.93431 39.239 9.93431 39.239C8.8425 36.3984 7.26938 35.6429 7.26938 35.6429C5.09194 34.1176 7.43362 34.1491 7.43362 34.1491C9.84356 34.3223 11.1126 36.6816 11.1126 36.6816C13.2532 40.4387 16.7272 39.3525 18.0967 38.7245C18.3122 37.1363 18.9341 36.0518 19.6206 35.4382C14.2897 34.8169 8.68594 32.7095 8.68594 23.2927C8.68594 20.6095 9.62344 18.417 11.1587 16.6959C10.9095 16.0769 10.0881 13.5775 11.3912 10.1921C11.3912 10.1921 13.4066 9.53165 17.9931 12.7114C19.9074 12.1668 21.9606 11.8938 24.0002 11.8844C26.0398 11.8938 28.0946 12.1667 30.0126 12.7114C34.5934 9.53184 36.606 10.1923 36.606 10.1923C37.9123 13.5773 37.0905 16.0771 36.8413 16.6959C38.3801 18.417 39.3113 20.6095 39.3113 23.2927C39.3113 32.732 33.6967 34.8104 28.3524 35.4188C29.2132 36.1814 29.9803 37.6771 29.9803 39.97C29.9803 43.2582 29.9526 45.9047 29.9526 46.7142C29.9526 47.3683 30.3846 48.1346 31.6011 47.8931C41.1319 44.64 48 35.4311 48 24.5764C48 11.0029 37.2546 0 24.0002 0ZM8.98894 35.0093C8.93606 35.1314 8.74838 35.1681 8.57756 35.0842C8.40338 35.0041 8.30569 34.8376 8.36194 34.7151C8.41369 34.5894 8.60175 34.5542 8.77537 34.6385C8.94975 34.7188 9.04913 34.8868 8.98894 35.0093ZM10.1694 36.0879C10.0551 36.1966 9.83119 36.1461 9.67931 35.9745C9.52238 35.8032 9.49294 35.574 9.609 35.4637C9.72713 35.3551 9.94406 35.406 10.1014 35.5772C10.2585 35.7506 10.2889 35.9781 10.1694 36.0879ZM10.9794 37.468C10.8322 37.5727 10.5919 37.4746 10.4432 37.2561C10.2962 37.0376 10.2962 36.7755 10.4464 36.6705C10.5954 36.5654 10.8323 36.6599 10.9828 36.8769C11.1294 37.099 11.1294 37.3611 10.9792 37.4682L10.9794 37.468ZM12.3489 39.0664C12.2175 39.215 11.9372 39.1751 11.7321 38.9724C11.5222 38.7742 11.4639 38.4931 11.5959 38.3445C11.7291 38.1955 12.0109 38.2374 12.2175 38.4386C12.4256 38.6364 12.4894 38.9196 12.3489 39.0664ZM14.1193 39.606C14.0612 39.7985 13.7912 39.8861 13.5195 39.8043C13.248 39.72 13.0704 39.4946 13.1252 39.3001C13.1816 39.1062 13.4528 39.0152 13.7265 39.1027C13.9976 39.1864 14.1758 39.4101 14.1193 39.606ZM16.1338 39.835C16.1406 40.0376 15.9101 40.2056 15.6248 40.2094C15.3379 40.2159 15.1056 40.052 15.1024 39.8523C15.1024 39.6478 15.3277 39.4813 15.6148 39.4764C15.9002 39.4706 16.1338 39.6334 16.1338 39.835ZM18.1129 39.7573C18.147 39.955 17.9488 40.1581 17.6653 40.2123C17.3869 40.2643 17.1289 40.1422 17.0934 39.9462C17.0589 39.7434 17.2609 39.5403 17.5389 39.4879C17.8228 39.4374 18.0767 39.5562 18.1129 39.7573Z" fill="white"/>
</g>
<defs>
<clipPath id="clip0_804_1467">
<rect width="48" height="48" fill="white"/>
</clipPath>
</defs>
</svg>
