<svg width="800" height="800" viewBox="0 0 800 800" fill="none" xmlns="http://www.w3.org/2000/svg">
<g clip-path="url(#clip0_807_2295)">
<path d="M266.667 500H116.667C94.5708 499.982 73.3849 491.197 57.7607 475.573C42.1365 459.949 33.3511 438.763 33.3335 416.667V116.667C33.3511 94.5709 42.1365 73.385 57.7607 57.7608C73.3849 42.1366 94.5708 33.3512 116.667 33.3335H416.667C438.763 33.3512 459.949 42.1366 475.573 57.7608C491.197 73.385 499.982 94.5709 500 116.667V266.667H466.667V116.667C466.649 103.411 461.376 90.704 452.003 81.331C442.63 71.958 429.922 66.6845 416.667 66.6668H116.667C103.411 66.6845 90.7039 71.958 81.3309 81.331C71.9579 90.704 66.6844 103.411 66.6668 116.667V416.667C66.6844 429.922 71.9579 442.63 81.3309 452.003C90.7039 461.376 103.411 466.649 116.667 466.667H266.667V500ZM265.4 339.633C228.355 368.395 185.534 388.817 139.867 399.5L131.8 367.167C171.408 357.9 208.661 340.511 241.2 316.1C201.748 274.518 174.648 222.776 162.933 166.667H133.333V133.333H242.633L224.5 115.2L248.067 91.6335L289.733 133.333H400V166.667H369.533C361.254 203.958 346.521 239.515 326 271.734C298.164 286.198 276.585 310.351 265.333 339.633H265.4ZM266.467 293.533C300.396 258.204 324.165 214.375 335.267 166.667H197.4C208.598 214.396 232.458 258.223 266.467 293.533ZM766.667 681.567V385.1C766.79 373.994 764.714 362.974 760.558 352.674C756.402 342.374 750.249 332.998 742.453 325.087C734.657 317.177 725.372 310.887 715.134 306.582C704.896 302.276 693.907 300.039 682.8 300H385.1C362.538 300.027 340.908 309.001 324.955 324.955C309.001 340.908 300.027 362.538 300 385.1V681.567C300.027 704.129 309.001 725.759 324.955 741.712C340.908 757.666 362.538 766.64 385.1 766.667H681.567C704.129 766.64 725.759 757.666 741.712 741.712C757.666 725.759 766.64 704.129 766.667 681.567ZM682.8 333.333C696.2 333.342 709.048 338.669 718.523 348.144C727.998 357.619 733.325 370.467 733.333 383.867V682.8C733.325 696.2 727.998 709.048 718.523 718.523C709.048 727.998 696.2 733.325 682.8 733.333H383.867C370.467 733.325 357.619 727.998 348.144 718.523C338.669 709.048 333.342 696.2 333.333 682.8V383.867C333.342 370.467 338.669 357.619 348.144 348.144C357.619 338.669 370.467 333.342 383.867 333.333H682.8ZM613.267 600H453.4L414.767 674.333L385.233 659L533.333 373.833L681.433 659L651.9 674.333L613.267 600ZM595.933 566.667L533.333 446.167L470.733 566.667H595.933ZM200 733.667C182.327 733.64 165.386 726.608 152.889 714.111C140.392 701.615 133.36 684.673 133.333 667V590.234L188.2 645.1L211.767 621.533L116.867 526.667L21.9668 621.533L45.5335 645.1L100 590.667V667.067C100.027 693.58 110.571 719 129.319 737.748C148.067 756.496 173.487 767.04 200 767.067H268.6V733.733L200 733.667ZM754.867 154.9L700 209.767V133.333C699.974 106.82 689.429 81.4 670.682 62.6521C651.934 43.9042 626.514 33.36 600 33.3335H533.333V66.6668H600C617.673 66.6933 634.615 73.7256 647.111 86.2223C659.608 98.7189 666.64 115.661 666.667 133.333V209.367L612.2 154.867L588.633 178.434L683.533 273.367L778.467 178.434L754.867 154.9Z" fill="white"/>
</g>
<defs>
<clipPath id="clip0_807_2295">
<rect width="800" height="800" fill="white"/>
</clipPath>
</defs>
</svg>
