<svg width="48" height="48" viewBox="0 0 48 48" fill="none" xmlns="http://www.w3.org/2000/svg">
<g clip-path="url(#clip0_804_1469)">
<path fill-rule="evenodd" clip-rule="evenodd" d="M27.0195 15.0435H11.2005C9.96297 15.0435 8.95872 16.0477 8.95872 17.2852V36.7582C8.95872 37.9957 9.96297 39 11.2005 39H30.7185C31.956 39 32.9602 37.9957 32.9602 36.7582V21.0435H35.9595V37.5045C35.9595 39.9855 33.945 42 31.4632 42.0007H10.4557C7.97397 42.0007 5.95947 39.9855 5.95947 37.5045V16.539C5.95947 14.0572 7.97397 12.0427 10.4557 12.0427H27.0195V15.0435Z" fill="white"/>
<path fill-rule="evenodd" clip-rule="evenodd" d="M41.9437 18.99H38.94V11.1292L18.0195 32.049L15.8955 29.925L36.8167 9.00375H28.9537V6H41.9422L41.9437 6.00075V18.99Z" fill="white"/>
</g>
<defs>
<clipPath id="clip0_804_1469">
<rect width="48" height="48" fill="white"/>
</clipPath>
</defs>
</svg>
