<svg width="24" height="25" viewBox="0 0 24 25" fill="none" xmlns="http://www.w3.org/2000/svg">
<path d="M18.8348 21.8212C18.8348 23.3048 15.816 24.5001 12.0941 24.5001C8.37226 24.5001 5.35352 23.2941 5.35352 21.8212C5.35352 20.3377 8.37226 19.1423 12.0941 19.1423C15.816 19.1423 18.8348 20.3377 18.8348 21.8212Z" fill="#9EDCF2"/>
<path d="M18.8348 21.8212C18.8348 23.3048 15.816 24.5001 12.0941 24.5001C8.37226 24.5001 5.35352 23.2941 5.35352 21.8212C5.35352 20.3377 8.37226 19.1423 12.0941 19.1423C15.816 19.1423 18.8348 20.3377 18.8348 21.8212Z" fill="#7DBCE7"/>
<path d="M4.39722 13.9333L4.20034 14.7018C4.20034 14.7018 4.15347 14.9793 4.37847 15.0327C4.62222 15.022 4.60347 14.7658 4.58472 14.6911L4.39722 13.9333Z" fill="#9EDCF2"/>
<path d="M23.9813 10.6997L24 10.6036C22.0219 10.1554 19.9969 10.1447 18.7687 10.2087C18.9656 9.38691 19.0312 8.42635 19.0312 7.36973C19.0312 5.84351 18.525 4.62679 17.7188 3.70892C17.8594 3.18595 18.0469 2.02261 17.5312 0.539071C17.5312 0.539071 16.6125 0.208211 14.5219 1.79847C13.7062 1.56367 12.8344 1.44627 11.9625 1.44627C11.0062 1.44627 10.0406 1.58502 9.13125 1.86251C6.975 0.186865 6.02813 0.528398 6.02813 0.528398C5.40938 2.28943 5.79375 3.6022 5.90625 3.92238C5.175 4.81891 4.73438 5.96091 4.73438 7.35906C4.73438 8.41568 4.8375 9.36557 5.1 10.1874C3.8625 10.134 1.9125 10.1554 0 10.5929L0.01875 10.689C1.93125 10.2514 3.9 10.2407 5.12813 10.2941C5.18438 10.4649 5.25 10.6356 5.31563 10.7957C4.09688 10.8384 2.025 11.0199 0.0375 11.6602L0.065625 11.7563C2.07187 11.1159 4.1625 10.9452 5.37187 10.9025C6.10313 12.4394 7.52812 13.4426 10.0781 13.7521C9.7125 14.0296 9.34688 14.4992 9.19687 15.2997C8.7 15.5665 7.14375 16.2282 6.20625 14.3925C6.20625 14.3925 5.68125 13.3039 4.67813 13.2185C4.67813 13.2185 3.70312 13.1971 4.6125 13.9122C4.6125 13.9122 5.25938 14.2644 5.70938 15.5772C5.70938 15.5772 6.3 17.8185 9.12188 17.0928V19.3874C9.12188 19.3874 9.06563 20.2092 8.4 20.4761C8.4 20.4761 8.00625 20.7856 8.42813 20.9563C8.42813 20.9563 10.2563 21.1271 10.2563 19.4194V16.9006C10.2563 16.9006 10.1812 15.8974 10.6125 15.5559V19.6969C10.6125 19.6969 10.5844 20.6895 10.1344 21.0631C10.1344 21.0631 9.83438 21.6714 10.4906 21.5113C10.4906 21.5113 11.7469 21.3085 11.8031 19.6329L11.8312 15.4385H12.1312L12.1594 19.6329C12.2156 21.2979 13.4719 21.5113 13.4719 21.5113C14.1281 21.6821 13.8281 21.0631 13.8281 21.0631C13.3781 20.6895 13.35 19.6969 13.35 19.6969V15.5879C13.7812 15.9721 13.7062 16.9006 13.7062 16.9006V19.4194C13.7062 21.1271 15.5344 20.9563 15.5344 20.9563C15.9562 20.7856 15.5625 20.4761 15.5625 20.4761C14.9062 20.1986 14.8406 19.3874 14.8406 19.3874V16.0788C14.8406 14.7874 14.3625 14.1043 13.8937 13.7521C16.6125 13.4426 17.9156 12.45 18.5156 10.8918C19.7062 10.9238 21.8531 11.0946 23.8969 11.7563L23.925 11.6602C21.8906 11.0092 19.7625 10.8384 18.5531 10.7957C18.6094 10.6356 18.6562 10.4755 18.7031 10.3048C19.9594 10.2514 21.9937 10.2514 23.9813 10.6997Z" fill="#010101"/>
<path d="M16.3691 7.29507C16.9504 7.90343 17.2973 8.62918 17.2973 9.40831C17.2973 13.0798 14.8973 13.1758 11.9348 13.1758C8.97227 13.1758 6.57227 12.6635 6.57227 9.40831C6.57227 8.62918 6.90977 7.90343 7.49102 7.30574C8.45664 6.30249 10.0879 6.83614 11.9348 6.83614C13.7816 6.83614 15.4035 6.29182 16.3691 7.29507Z" fill="#F5CCB3"/>
<path d="M10.1531 9.60032C10.1531 10.6142 9.65625 11.4254 9.0375 11.4254C8.41875 11.4254 7.92188 10.6036 7.92188 9.60032C7.92188 8.58639 8.41875 7.77525 9.0375 7.77525C9.65625 7.76458 10.1531 8.58639 10.1531 9.60032Z" fill="white"/>
<path d="M9.79668 9.62174C9.79668 10.2941 9.45918 10.8385 9.05605 10.8385C8.64355 10.8385 8.31543 10.2941 8.31543 9.62174C8.31543 8.94935 8.65293 8.40503 9.05605 8.40503C9.45918 8.40503 9.79668 8.94935 9.79668 9.62174Z" fill="#AF5C51"/>
<path d="M16.1434 9.60032C16.1434 10.6142 15.6465 11.4254 15.0277 11.4254C14.409 11.4254 13.9121 10.6036 13.9121 9.60032C13.9121 8.58639 14.409 7.77525 15.0277 7.77525C15.6371 7.76458 16.1434 8.58639 16.1434 9.60032Z" fill="white"/>
<path d="M15.7781 9.62174C15.7781 10.2941 15.4406 10.8385 15.0375 10.8385C14.625 10.8385 14.2969 10.2941 14.2969 9.62174C14.2969 8.94935 14.6344 8.40503 15.0375 8.40503C15.45 8.40503 15.7781 8.94935 15.7781 9.62174Z" fill="#AF5C51"/>
<path d="M12.2344 11.2228C12.2344 11.3935 12.1125 11.543 11.9531 11.543C11.8031 11.543 11.6719 11.4042 11.6719 11.2228C11.6719 11.0413 11.7937 10.9026 11.9531 10.9026C12.1031 10.9026 12.2344 11.0413 12.2344 11.2228Z" fill="#AF5C51"/>
<path d="M11.3067 12.0232C11.2879 11.9698 11.316 11.9165 11.3629 11.8951C11.4098 11.8738 11.4567 11.9058 11.4754 11.9592C11.5504 12.194 11.7379 12.3434 11.9535 12.3434C12.1692 12.3434 12.3567 12.1833 12.4317 11.9592C12.4504 11.9058 12.4973 11.8738 12.5442 11.8951C12.591 11.9165 12.6192 11.9698 12.6004 12.0232C12.5067 12.3327 12.2442 12.5462 11.9535 12.5462C11.6629 12.5462 11.4004 12.3327 11.3067 12.0232Z" fill="#AF5C51"/>
<path d="M5.10957 13.4744C5.10957 13.5598 5.0252 13.6238 4.9127 13.6238C4.80957 13.6238 4.71582 13.5598 4.71582 13.4744C4.71582 13.389 4.8002 13.325 4.9127 13.325C5.0252 13.325 5.10957 13.389 5.10957 13.4744Z" fill="#C4E5D9"/>
<path d="M5.65352 13.8162C5.65352 13.9016 5.56914 13.9656 5.45664 13.9656C5.35352 13.9656 5.25977 13.9016 5.25977 13.8162C5.25977 13.7308 5.34414 13.6667 5.45664 13.6667C5.56914 13.6667 5.65352 13.7308 5.65352 13.8162Z" fill="#C4E5D9"/>
<path d="M5.98164 14.2645C5.98164 14.3498 5.89727 14.4139 5.78477 14.4139C5.68164 14.4139 5.58789 14.3498 5.58789 14.2645C5.58789 14.1791 5.67227 14.115 5.78477 14.115C5.89727 14.1044 5.98164 14.1791 5.98164 14.2645Z" fill="#C4E5D9"/>
<path d="M6.28145 14.7767C6.28145 14.862 6.19707 14.9261 6.08457 14.9261C5.98145 14.9261 5.8877 14.862 5.8877 14.7767C5.8877 14.6913 5.97207 14.6272 6.08457 14.6272C6.19707 14.6166 6.28145 14.6913 6.28145 14.7767Z" fill="#C4E5D9"/>
<path d="M6.60957 15.2463C6.60957 15.3317 6.5252 15.3958 6.4127 15.3958C6.30957 15.3958 6.21582 15.3317 6.21582 15.2463C6.21582 15.161 6.3002 15.0969 6.4127 15.0969C6.5252 15.0969 6.60957 15.161 6.60957 15.2463Z" fill="#C4E5D9"/>
<path d="M7.05977 15.6629C7.05977 15.7483 6.97539 15.8123 6.86289 15.8123C6.75977 15.8123 6.66602 15.7483 6.66602 15.6629C6.66602 15.5775 6.75039 15.5135 6.86289 15.5135C6.97539 15.5028 7.05977 15.5775 7.05977 15.6629Z" fill="#C4E5D9"/>
<path d="M7.6877 15.9295C7.6877 16.0148 7.60332 16.0789 7.49082 16.0789C7.3877 16.0789 7.29395 16.0148 7.29395 15.9295C7.29395 15.8441 7.37832 15.78 7.49082 15.78C7.60332 15.78 7.6877 15.8441 7.6877 15.9295Z" fill="#C4E5D9"/>
<path d="M8.31562 15.9295C8.31562 16.0148 8.23125 16.0789 8.11875 16.0789C8.01562 16.0789 7.92188 16.0148 7.92188 15.9295C7.92188 15.8441 8.00625 15.78 8.11875 15.78C8.23125 15.78 8.31562 15.8441 8.31562 15.9295Z" fill="#C4E5D9"/>
<path d="M8.95332 15.8123C8.95332 15.8976 8.86895 15.9617 8.75645 15.9617C8.65332 15.9617 8.55957 15.8976 8.55957 15.8123C8.55957 15.7269 8.64395 15.6628 8.75645 15.6628C8.85957 15.6628 8.95332 15.7269 8.95332 15.8123Z" fill="#C4E5D9"/>
</svg>
