<svg width="2368" height="800" viewBox="0 0 2368 800" fill="none" xmlns="http://www.w3.org/2000/svg">
<g clip-path="url(#clip0_818_558)">
<path opacity="0.25" d="M2444.77 318.317L1801.35 192.817C1800.64 192.679 1799.74 192.761 1799.33 193C1798.92 193.239 1799.16 193.545 1799.87 193.683L2443.29 319.183C2444 319.321 2444.9 319.239 2445.31 319C2445.72 318.761 2445.48 318.455 2444.77 318.317Z" fill="url(#paint0_linear_818_558)"/>
<path opacity="0.49" d="M2578.19 652.567L1727.13 486.567C1726.42 486.429 1725.52 486.511 1725.11 486.75C1724.7 486.989 1724.94 487.295 1725.65 487.433L2576.71 653.433C2577.42 653.571 2578.32 653.489 2578.73 653.25C2579.14 653.011 2578.9 652.705 2578.19 652.567Z" fill="url(#paint1_linear_818_558)"/>
<path opacity="0.65" d="M2470.35 491.067L301.687 68.067C300.979 67.9289 300.074 68.0109 299.665 68.25C299.257 68.4891 299.499 68.7949 300.207 68.933L2468.87 491.933C2469.58 492.071 2470.49 491.989 2470.89 491.75C2471.3 491.511 2471.06 491.205 2470.35 491.067Z" fill="url(#paint2_linear_818_558)"/>
<path opacity="0.38" d="M1697.96 721.817L239.363 437.317C238.655 437.179 237.75 437.261 237.341 437.5C236.932 437.739 237.175 438.045 237.883 438.183L1696.48 722.683C1697.19 722.821 1698.09 722.739 1698.5 722.5C1698.91 722.261 1698.67 721.955 1697.96 721.817Z" fill="url(#paint3_linear_818_558)"/>
<path opacity="0.13" d="M2903.19 943.067L437.168 462.067C436.46 461.929 435.555 462.011 435.146 462.25C434.738 462.489 434.98 462.795 435.688 462.933L2901.71 943.933C2902.42 944.071 2903.33 943.989 2903.73 943.75C2904.14 943.511 2903.9 943.205 2903.19 943.067Z" fill="url(#paint4_linear_818_558)"/>
<path opacity="0.35" d="M1014.96 403.067L-261.635 154.067C-262.343 153.929 -263.248 154.011 -263.657 154.25C-264.066 154.489 -263.823 154.795 -263.115 154.933L1013.48 403.933C1014.18 404.071 1015.09 403.989 1015.5 403.75C1015.91 403.511 1015.66 403.205 1014.96 403.067Z" fill="url(#paint5_linear_818_558)"/>
<path opacity="0.97" d="M2714.17 295.817L578.829 -120.683C578.121 -120.821 577.216 -120.739 576.808 -120.5C576.399 -120.261 576.641 -119.955 577.349 -119.817L2712.69 296.683C2713.4 296.821 2714.3 296.739 2714.71 296.5C2715.12 296.261 2714.88 295.955 2714.17 295.817Z" fill="url(#paint6_linear_818_558)"/>
<path opacity="0.14" d="M2811.98 664.317L486.942 210.817C486.234 210.679 485.329 210.761 484.921 211C484.512 211.239 484.754 211.545 485.462 211.683L2810.5 665.183C2811.21 665.321 2812.11 665.239 2812.52 665C2812.93 664.761 2812.69 664.455 2811.98 664.317Z" fill="url(#paint7_linear_818_558)"/>
<path opacity="0.81" d="M825.537 750.317L-125.497 564.817C-126.205 564.679 -127.11 564.761 -127.519 565C-127.927 565.239 -127.685 565.545 -126.977 565.683L824.057 751.183C824.765 751.321 825.67 751.239 826.079 751C826.488 750.761 826.245 750.455 825.537 750.317Z" fill="url(#paint8_linear_818_558)"/>
<path opacity="0.86" d="M2450.11 127.317L1837.45 7.81699C1836.74 7.67891 1835.84 7.76085 1835.43 8C1835.02 8.23915 1835.26 8.54494 1835.97 8.68301L2448.63 128.183C2449.34 128.321 2450.24 128.239 2450.65 128C2451.06 127.761 2450.82 127.455 2450.11 127.317Z" fill="url(#paint9_linear_818_558)"/>
<path opacity="0.75" d="M1903.16 304.317L-155.279 -97.183C-155.987 -97.3211 -156.892 -97.2391 -157.301 -97C-157.709 -96.7609 -157.467 -96.4551 -156.759 -96.317L1901.68 305.183C1902.39 305.321 1903.29 305.239 1903.7 305C1904.11 304.761 1903.87 304.455 1903.16 304.317Z" fill="url(#paint10_linear_818_558)"/>
</g>
<defs>
<linearGradient id="paint0_linear_818_558" x1="20840.9" y1="-11620.2" x2="20928" y2="-11471.2" gradientUnits="userSpaceOnUse">
<stop/>
<stop offset="0.45" stop-color="#3951C6"/>
<stop offset="1" stop-color="#8896DD"/>
</linearGradient>
<linearGradient id="paint1_linear_818_558" x1="28063.3" y1="-14907.1" x2="28150.5" y2="-14758.1" gradientUnits="userSpaceOnUse">
<stop/>
<stop offset="0.45" stop-color="#3951C6"/>
<stop offset="1" stop-color="#8896DD"/>
</linearGradient>
<linearGradient id="paint2_linear_818_558" x1="64060.3" y1="-36771.5" x2="64147.5" y2="-36622.5" gradientUnits="userSpaceOnUse">
<stop/>
<stop offset="0.45" stop-color="#3951C6"/>
<stop offset="1" stop-color="#8896DD"/>
</linearGradient>
<linearGradient id="paint3_linear_818_558" x1="44715.7" y1="-24514.1" x2="44802.9" y2="-24365.2" gradientUnits="userSpaceOnUse">
<stop/>
<stop offset="0.45" stop-color="#3951C6"/>
<stop offset="1" stop-color="#8896DD"/>
</linearGradient>
<linearGradient id="paint4_linear_818_558" x1="74449" y1="-41607.1" x2="74536.2" y2="-41458.2" gradientUnits="userSpaceOnUse">
<stop/>
<stop offset="0.45" stop-color="#3951C6"/>
<stop offset="1" stop-color="#8896DD"/>
</linearGradient>
<linearGradient id="paint5_linear_818_558" x1="37921.9" y1="-21388.1" x2="38009.1" y2="-21239.1" gradientUnits="userSpaceOnUse">
<stop/>
<stop offset="0.45" stop-color="#3951C6"/>
<stop offset="1" stop-color="#8896DD"/>
</linearGradient>
<linearGradient id="paint6_linear_818_558" x1="62496.7" y1="-36456.1" x2="62583.9" y2="-36307.1" gradientUnits="userSpaceOnUse">
<stop/>
<stop offset="0.45" stop-color="#3951C6"/>
<stop offset="1" stop-color="#8896DD"/>
</linearGradient>
<linearGradient id="paint7_linear_818_558" x1="69335.1" y1="-39407.8" x2="69422.2" y2="-39258.8" gradientUnits="userSpaceOnUse">
<stop/>
<stop offset="0.45" stop-color="#3951C6"/>
<stop offset="1" stop-color="#8896DD"/>
</linearGradient>
<linearGradient id="paint8_linear_818_558" x1="30133.5" y1="-15691.3" x2="30220.6" y2="-15542.3" gradientUnits="userSpaceOnUse">
<stop/>
<stop offset="0.45" stop-color="#3951C6"/>
<stop offset="1" stop-color="#8896DD"/>
</linearGradient>
<linearGradient id="paint9_linear_818_558" x1="19214.7" y1="-11234.5" x2="19301.9" y2="-11085.5" gradientUnits="userSpaceOnUse">
<stop/>
<stop offset="0.45" stop-color="#3951C6"/>
<stop offset="1" stop-color="#8896DD"/>
</linearGradient>
<linearGradient id="paint10_linear_818_558" x1="59873.9" y1="-34803.4" x2="59961" y2="-34654.4" gradientUnits="userSpaceOnUse">
<stop/>
<stop offset="0.45" stop-color="#3951C6"/>
<stop offset="1" stop-color="#8896DD"/>
</linearGradient>
<clipPath id="clip0_818_558">
<rect width="2368" height="800" fill="white"/>
</clipPath>
</defs>
</svg>
