<svg width="80" height="102" viewBox="0 0 80 102" fill="none" xmlns="http://www.w3.org/2000/svg">
<g clip-path="url(#clip0_151_609)">
<path d="M0.03125 13.3889L39.3464 0.205078L79.72 13.1545L73.183 62.1103L39.3464 79.7473L6.03903 62.3447L0.03125 13.3889Z" fill="#E23237"/>
<path d="M79.7202 13.1545L39.3467 0.205078V79.7473L73.1833 62.1396L79.7202 13.1545Z" fill="#B52E31"/>
<path d="M39.4082 9.49243L14.9102 60.792L24.0619 60.6456L28.9802 49.0731H39.4393H39.4705H50.9569L56.3421 60.792L65.0892 60.9385L39.4082 9.49243ZM39.4705 25.9282L47.7506 42.2175H39.8129H39.4082H32.1864L39.4705 25.9282Z" fill="white"/>
</g>
<path d="M16.55 96.724L15.494 93.838C15.442 93.71 15.388 93.558 15.332 93.382C15.276 93.206 15.22 93.016 15.164 92.812C15.112 93.016 15.058 93.208 15.002 93.388C14.946 93.564 14.892 93.718 14.84 93.85L13.79 96.724H16.55ZM19.4 100H18.152C18.012 100 17.898 99.966 17.81 99.898C17.722 99.826 17.656 99.738 17.612 99.634L16.964 97.864H13.37L12.722 99.634C12.69 99.726 12.628 99.81 12.536 99.886C12.444 99.962 12.33 100 12.194 100H10.934L14.348 91.324H15.992L19.4 100ZM27.612 91.324V100H26.784C26.656 100 26.548 99.98 26.46 99.94C26.376 99.896 26.294 99.824 26.214 99.724L21.684 93.94C21.708 94.204 21.72 94.448 21.72 94.672V100H20.298V91.324H21.144C21.212 91.324 21.27 91.328 21.318 91.336C21.37 91.34 21.414 91.352 21.45 91.372C21.49 91.388 21.528 91.414 21.564 91.45C21.6 91.482 21.64 91.526 21.684 91.582L26.232 97.39C26.22 97.25 26.21 97.112 26.202 96.976C26.194 96.84 26.19 96.714 26.19 96.598V91.324H27.612ZM36.6961 95.65V99.16C36.2561 99.484 35.7861 99.722 35.2861 99.874C34.7901 100.022 34.2581 100.096 33.6901 100.096C32.9821 100.096 32.3401 99.986 31.7641 99.766C31.1921 99.546 30.7021 99.24 30.2941 98.848C29.8901 98.456 29.5781 97.988 29.3581 97.444C29.1381 96.9 29.0281 96.306 29.0281 95.662C29.0281 95.01 29.1341 94.412 29.3461 93.868C29.5581 93.324 29.8581 92.856 30.2461 92.464C30.6381 92.072 31.1121 91.768 31.6681 91.552C32.2241 91.336 32.8481 91.228 33.5401 91.228C33.8921 91.228 34.2201 91.256 34.5241 91.312C34.8321 91.368 35.1161 91.446 35.3761 91.546C35.6401 91.642 35.8801 91.76 36.0961 91.9C36.3121 92.04 36.5101 92.194 36.6901 92.362L36.2281 93.094C36.1561 93.21 36.0621 93.282 35.9461 93.31C35.8301 93.334 35.7041 93.304 35.5681 93.22C35.4361 93.144 35.3041 93.068 35.1721 92.992C35.0401 92.916 34.8921 92.85 34.7281 92.794C34.5681 92.738 34.3861 92.692 34.1821 92.656C33.9821 92.62 33.7501 92.602 33.4861 92.602C33.0581 92.602 32.6701 92.674 32.3221 92.818C31.9781 92.962 31.6841 93.168 31.4401 93.436C31.1961 93.704 31.0081 94.026 30.8761 94.402C30.7441 94.778 30.6781 95.198 30.6781 95.662C30.6781 96.158 30.7481 96.602 30.8881 96.994C31.0321 97.382 31.2321 97.712 31.4881 97.984C31.7481 98.252 32.0601 98.458 32.4241 98.602C32.7881 98.742 33.1941 98.812 33.6421 98.812C33.9621 98.812 34.2481 98.778 34.5001 98.71C34.7521 98.642 34.9981 98.55 35.2381 98.434V96.862H34.1461C34.0421 96.862 33.9601 96.834 33.9001 96.778C33.8441 96.718 33.8161 96.646 33.8161 96.562V95.65H36.6961ZM41.7432 98.698C42.0552 98.698 42.3332 98.646 42.5772 98.542C42.8252 98.438 43.0332 98.292 43.2012 98.104C43.3692 97.916 43.4972 97.688 43.5852 97.42C43.6772 97.152 43.7232 96.852 43.7232 96.52V91.324H45.3372V96.52C45.3372 97.036 45.2532 97.514 45.0852 97.954C44.9212 98.39 44.6832 98.768 44.3712 99.088C44.0632 99.404 43.6872 99.652 43.2432 99.832C42.7992 100.008 42.2992 100.096 41.7432 100.096C41.1832 100.096 40.6812 100.008 40.2372 99.832C39.7932 99.652 39.4152 99.404 39.1032 99.088C38.7952 98.768 38.5572 98.39 38.3892 97.954C38.2252 97.514 38.1432 97.036 38.1432 96.52V91.324H39.7572V96.514C39.7572 96.846 39.8012 97.146 39.8892 97.414C39.9812 97.682 40.1112 97.912 40.2792 98.104C40.4512 98.292 40.6592 98.438 40.9032 98.542C41.1512 98.646 41.4312 98.698 41.7432 98.698ZM52.2394 98.668V100H47.1574V91.324H48.7714V98.668H52.2394ZM57.9758 96.724L56.9198 93.838C56.8678 93.71 56.8138 93.558 56.7578 93.382C56.7018 93.206 56.6458 93.016 56.5898 92.812C56.5378 93.016 56.4838 93.208 56.4278 93.388C56.3718 93.564 56.3178 93.718 56.2658 93.85L55.2158 96.724H57.9758ZM60.8258 100H59.5778C59.4378 100 59.3238 99.966 59.2358 99.898C59.1478 99.826 59.0818 99.738 59.0378 99.634L58.3898 97.864H54.7958L54.1478 99.634C54.1158 99.726 54.0538 99.81 53.9618 99.886C53.8698 99.962 53.7558 100 53.6198 100H52.3598L55.7738 91.324H57.4178L60.8258 100ZM64.3458 95.452C64.6498 95.452 64.9138 95.414 65.1378 95.338C65.3658 95.262 65.5518 95.158 65.6958 95.026C65.8438 94.89 65.9538 94.73 66.0258 94.546C66.0978 94.362 66.1338 94.16 66.1338 93.94C66.1338 93.5 65.9878 93.162 65.6958 92.926C65.4078 92.69 64.9658 92.572 64.3698 92.572H63.3378V95.452H64.3458ZM68.4978 100H67.0398C66.7638 100 66.5638 99.892 66.4398 99.676L64.6158 96.898C64.5478 96.794 64.4718 96.72 64.3878 96.676C64.3078 96.632 64.1878 96.61 64.0278 96.61H63.3378V100H61.7238V91.324H64.3698C64.9578 91.324 65.4618 91.386 65.8818 91.51C66.3058 91.63 66.6518 91.8 66.9198 92.02C67.1918 92.24 67.3918 92.504 67.5198 92.812C67.6478 93.116 67.7118 93.452 67.7118 93.82C67.7118 94.112 67.6678 94.388 67.5798 94.648C67.4958 94.908 67.3718 95.144 67.2078 95.356C67.0478 95.568 66.8478 95.754 66.6078 95.914C66.3718 96.074 66.1018 96.2 65.7978 96.292C65.9018 96.352 65.9978 96.424 66.0858 96.508C66.1738 96.588 66.2538 96.684 66.3258 96.796L68.4978 100Z" fill="white"/>
<defs>
<clipPath id="clip0_151_609">
<rect width="80" height="80" fill="white"/>
</clipPath>
</defs>
</svg>
