<svg width="80" height="102" viewBox="0 0 80 102" fill="none" xmlns="http://www.w3.org/2000/svg">
<path d="M39.951 80L7.28049 72.0029L0 0H80L72.7118 71.9916L39.951 80Z" fill="#264DE4"/>
<path d="M66.4723 67.4074L72.7005 5.88721H40V73.8787L66.4723 67.4074Z" fill="#2965F1"/>
<path d="M16.6904 32.592L17.5881 41.4228H40.0001V32.592H16.6904Z" fill="#EBEBEB"/>
<path d="M14.8867 14.7183L15.7971 23.5492H40V14.7183H14.8867Z" fill="#EBEBEB"/>
<path d="M39.9997 55.5267L39.9558 55.5371L28.8018 52.8814L28.0888 45.8384H18.0352L19.4383 59.7041L39.9536 64.7258L39.9997 64.7146V55.5267Z" fill="#EBEBEB"/>
<path d="M63.2459 32.5921L65.054 14.7183H39.9658V23.5492H54.0782L53.1669 32.5921H39.9658V41.4229H52.2984L51.1359 52.8759L39.9658 55.5342V64.7217L60.4975 59.7042L60.6481 58.2123L63.0015 34.9635L63.2459 32.5921Z" fill="white"/>
<path d="M35.924 97.954C36.012 97.954 36.09 97.988 36.158 98.056L36.794 98.746C36.442 99.182 36.008 99.516 35.492 99.748C34.98 99.98 34.364 100.096 33.644 100.096C33 100.096 32.42 99.986 31.904 99.766C31.392 99.546 30.954 99.24 30.59 98.848C30.226 98.456 29.946 97.988 29.75 97.444C29.558 96.9 29.462 96.306 29.462 95.662C29.462 95.01 29.566 94.414 29.774 93.874C29.982 93.33 30.274 92.862 30.65 92.47C31.03 92.078 31.482 91.774 32.006 91.558C32.53 91.338 33.11 91.228 33.746 91.228C34.378 91.228 34.938 91.332 35.426 91.54C35.918 91.748 36.336 92.02 36.68 92.356L36.14 93.106C36.108 93.154 36.066 93.196 36.014 93.232C35.966 93.268 35.898 93.286 35.81 93.286C35.75 93.286 35.688 93.27 35.624 93.238C35.56 93.202 35.49 93.16 35.414 93.112C35.338 93.06 35.25 93.004 35.15 92.944C35.05 92.884 34.934 92.83 34.802 92.782C34.67 92.73 34.516 92.688 34.34 92.656C34.168 92.62 33.968 92.602 33.74 92.602C33.352 92.602 32.996 92.672 32.672 92.812C32.352 92.948 32.076 93.148 31.844 93.412C31.612 93.672 31.432 93.992 31.304 94.372C31.176 94.748 31.112 95.178 31.112 95.662C31.112 96.15 31.18 96.584 31.316 96.964C31.456 97.344 31.644 97.664 31.88 97.924C32.116 98.184 32.394 98.384 32.714 98.524C33.034 98.66 33.378 98.728 33.746 98.728C33.966 98.728 34.164 98.716 34.34 98.692C34.52 98.668 34.684 98.63 34.832 98.578C34.984 98.526 35.126 98.46 35.258 98.38C35.394 98.296 35.528 98.194 35.66 98.074C35.7 98.038 35.742 98.01 35.786 97.99C35.83 97.966 35.876 97.954 35.924 97.954ZM42.5196 92.902C42.4716 92.986 42.4196 93.048 42.3636 93.088C42.3116 93.124 42.2456 93.142 42.1656 93.142C42.0816 93.142 41.9896 93.112 41.8896 93.052C41.7936 92.988 41.6776 92.918 41.5416 92.842C41.4056 92.766 41.2456 92.698 41.0616 92.638C40.8816 92.574 40.6676 92.542 40.4196 92.542C40.1956 92.542 39.9996 92.57 39.8316 92.626C39.6636 92.678 39.5216 92.752 39.4056 92.848C39.2936 92.944 39.2096 93.06 39.1536 93.196C39.0976 93.328 39.0696 93.474 39.0696 93.634C39.0696 93.838 39.1256 94.008 39.2376 94.144C39.3536 94.28 39.5056 94.396 39.6936 94.492C39.8816 94.588 40.0956 94.674 40.3356 94.75C40.5756 94.826 40.8216 94.908 41.0736 94.996C41.3256 95.08 41.5716 95.18 41.8116 95.296C42.0516 95.408 42.2656 95.552 42.4536 95.728C42.6416 95.9 42.7916 96.112 42.9036 96.364C43.0196 96.616 43.0776 96.922 43.0776 97.282C43.0776 97.674 43.0096 98.042 42.8736 98.386C42.7416 98.726 42.5456 99.024 42.2856 99.28C42.0296 99.532 41.7156 99.732 41.3436 99.88C40.9716 100.024 40.5456 100.096 40.0656 100.096C39.7896 100.096 39.5176 100.068 39.2496 100.012C38.9816 99.96 38.7236 99.884 38.4756 99.784C38.2316 99.684 38.0016 99.564 37.7856 99.424C37.5696 99.284 37.3776 99.128 37.2096 98.956L37.6836 98.182C37.7236 98.126 37.7756 98.08 37.8396 98.044C37.9036 98.004 37.9716 97.984 38.0436 97.984C38.1436 97.984 38.2516 98.026 38.3676 98.11C38.4836 98.19 38.6216 98.28 38.7816 98.38C38.9416 98.48 39.1276 98.572 39.3396 98.656C39.5556 98.736 39.8136 98.776 40.1136 98.776C40.5736 98.776 40.9296 98.668 41.1816 98.452C41.4336 98.232 41.5596 97.918 41.5596 97.51C41.5596 97.282 41.5016 97.096 41.3856 96.952C41.2736 96.808 41.1236 96.688 40.9356 96.592C40.7476 96.492 40.5336 96.408 40.2936 96.34C40.0536 96.272 39.8096 96.198 39.5616 96.118C39.3136 96.038 39.0696 95.942 38.8296 95.83C38.5896 95.718 38.3756 95.572 38.1876 95.392C37.9996 95.212 37.8476 94.988 37.7316 94.72C37.6196 94.448 37.5636 94.114 37.5636 93.718C37.5636 93.402 37.6256 93.094 37.7496 92.794C37.8776 92.494 38.0616 92.228 38.3016 91.996C38.5416 91.764 38.8376 91.578 39.1896 91.438C39.5416 91.298 39.9456 91.228 40.4016 91.228C40.9136 91.228 41.3856 91.308 41.8176 91.468C42.2496 91.628 42.6176 91.852 42.9216 92.14L42.5196 92.902ZM49.1055 92.902C49.0575 92.986 49.0055 93.048 48.9495 93.088C48.8975 93.124 48.8315 93.142 48.7515 93.142C48.6675 93.142 48.5755 93.112 48.4755 93.052C48.3795 92.988 48.2635 92.918 48.1275 92.842C47.9915 92.766 47.8315 92.698 47.6475 92.638C47.4675 92.574 47.2535 92.542 47.0055 92.542C46.7815 92.542 46.5855 92.57 46.4175 92.626C46.2495 92.678 46.1075 92.752 45.9915 92.848C45.8795 92.944 45.7955 93.06 45.7395 93.196C45.6835 93.328 45.6555 93.474 45.6555 93.634C45.6555 93.838 45.7115 94.008 45.8235 94.144C45.9395 94.28 46.0915 94.396 46.2795 94.492C46.4675 94.588 46.6815 94.674 46.9215 94.75C47.1615 94.826 47.4075 94.908 47.6595 94.996C47.9115 95.08 48.1575 95.18 48.3975 95.296C48.6375 95.408 48.8515 95.552 49.0395 95.728C49.2275 95.9 49.3775 96.112 49.4895 96.364C49.6055 96.616 49.6635 96.922 49.6635 97.282C49.6635 97.674 49.5955 98.042 49.4595 98.386C49.3275 98.726 49.1315 99.024 48.8715 99.28C48.6155 99.532 48.3015 99.732 47.9295 99.88C47.5575 100.024 47.1315 100.096 46.6515 100.096C46.3755 100.096 46.1035 100.068 45.8355 100.012C45.5675 99.96 45.3095 99.884 45.0615 99.784C44.8175 99.684 44.5875 99.564 44.3715 99.424C44.1555 99.284 43.9635 99.128 43.7955 98.956L44.2695 98.182C44.3095 98.126 44.3615 98.08 44.4255 98.044C44.4895 98.004 44.5575 97.984 44.6295 97.984C44.7295 97.984 44.8375 98.026 44.9535 98.11C45.0695 98.19 45.2075 98.28 45.3675 98.38C45.5275 98.48 45.7135 98.572 45.9255 98.656C46.1415 98.736 46.3995 98.776 46.6995 98.776C47.1595 98.776 47.5155 98.668 47.7675 98.452C48.0195 98.232 48.1455 97.918 48.1455 97.51C48.1455 97.282 48.0875 97.096 47.9715 96.952C47.8595 96.808 47.7095 96.688 47.5215 96.592C47.3335 96.492 47.1195 96.408 46.8795 96.34C46.6395 96.272 46.3955 96.198 46.1475 96.118C45.8995 96.038 45.6555 95.942 45.4155 95.83C45.1755 95.718 44.9615 95.572 44.7735 95.392C44.5855 95.212 44.4335 94.988 44.3175 94.72C44.2055 94.448 44.1495 94.114 44.1495 93.718C44.1495 93.402 44.2115 93.094 44.3355 92.794C44.4635 92.494 44.6475 92.228 44.8875 91.996C45.1275 91.764 45.4235 91.578 45.7755 91.438C46.1275 91.298 46.5315 91.228 46.9875 91.228C47.4995 91.228 47.9715 91.308 48.4035 91.468C48.8355 91.628 49.2035 91.852 49.5075 92.14L49.1055 92.902Z" fill="white"/>
</svg>
