<svg width="80" height="80" viewBox="0 0 80 80" fill="none" xmlns="http://www.w3.org/2000/svg">
<g clip-path="url(#clip0_151_558)">
<path d="M79.7219 0L72.4587 71.8234L39.8122 79.813L7.25516 71.8348L0 0H79.7219Z" fill="#E44D26"/>
<path d="M40 73.3654L66.3803 66.9094L72.5869 5.53296H40V73.3654Z" fill="#F16529"/>
<path d="M25.8809 23.1538H39.9996V14.3435H14.9736L15.2125 16.7071L17.6655 40.9858H39.9996V32.1756H26.793L25.8809 23.1538Z" fill="#EBEBEB"/>
<path d="M28.131 45.3909H18.1123L19.5106 59.2243L39.9545 64.2342L40.0004 64.2229V55.0565L39.9567 55.0667L28.8415 52.4174L28.131 45.3909Z" fill="#EBEBEB"/>
<path d="M39.9658 40.9857H52.2552L51.0968 52.412L39.9658 55.0641V64.2299L60.4258 59.2244L60.5761 57.7358L62.9211 34.5413L63.1649 32.1755H39.9658V40.9857Z" fill="white"/>
<path d="M39.9658 23.1323V23.1538H64.073L64.273 21.1735L64.728 16.7071L64.9664 14.3435H39.9658V23.1323Z" fill="white"/>
</g>
<defs>
<clipPath id="clip0_151_558">
<rect width="80" height="80" fill="white"/>
</clipPath>
</defs>
</svg>
