<svg width="80" height="102" viewBox="0 0 80 102" fill="none" xmlns="http://www.w3.org/2000/svg">
<g clip-path="url(#clip0_151_608)">
<path d="M79.7219 0L72.4587 71.8234L39.8122 79.813L7.25516 71.8348L0 0H79.7219Z" fill="#E44D26"/>
<path d="M40 73.3654L66.3803 66.9094L72.5869 5.53296H40V73.3654Z" fill="#F16529"/>
<path d="M25.8809 23.1538H39.9996V14.3435H14.9736L15.2125 16.7071L17.6655 40.9858H39.9996V32.1756H26.793L25.8809 23.1538Z" fill="#EBEBEB"/>
<path d="M28.131 45.3909H18.1123L19.5106 59.2243L39.9545 64.2342L40.0004 64.2229V55.0565L39.9567 55.0667L28.8415 52.4174L28.131 45.3909Z" fill="#EBEBEB"/>
<path d="M39.9658 40.9857H52.2552L51.0968 52.412L39.9658 55.0641V64.2299L60.4258 59.2244L60.5761 57.7358L62.9211 34.5413L63.1649 32.1755H39.9658V40.9857Z" fill="white"/>
<path d="M39.9658 23.1323V23.1538H64.073L64.273 21.1735L64.728 16.7071L64.9664 14.3435H39.9658V23.1323Z" fill="white"/>
</g>
<path d="M27.78 91.324V100H26.16V96.208H22.086V100H20.466V91.324H22.086V95.056H26.16V91.324H27.78ZM35.7721 92.65H33.1561V100H31.5421V92.65H28.9261V91.324H35.7721V92.65ZM46.3154 91.324V100H44.8934V94.396C44.8934 94.172 44.9054 93.93 44.9294 93.67L42.3074 98.596C42.1834 98.832 41.9934 98.95 41.7374 98.95H41.5094C41.2534 98.95 41.0634 98.832 40.9394 98.596L38.2874 93.652C38.2994 93.784 38.3094 93.914 38.3174 94.042C38.3254 94.17 38.3294 94.288 38.3294 94.396V100H36.9074V91.324H38.1254C38.1974 91.324 38.2594 91.326 38.3114 91.33C38.3634 91.334 38.4094 91.344 38.4494 91.36C38.4934 91.376 38.5314 91.402 38.5634 91.438C38.5994 91.474 38.6334 91.522 38.6654 91.582L41.2634 96.4C41.3314 96.528 41.3934 96.66 41.4494 96.796C41.5094 96.932 41.5674 97.072 41.6234 97.216C41.6794 97.068 41.7374 96.926 41.7974 96.79C41.8574 96.65 41.9214 96.516 41.9894 96.388L44.5514 91.582C44.5834 91.522 44.6174 91.474 44.6534 91.438C44.6894 91.402 44.7274 91.376 44.7674 91.36C44.8114 91.344 44.8594 91.334 44.9114 91.33C44.9634 91.326 45.0254 91.324 45.0974 91.324H46.3154ZM53.3332 98.668V100H48.2512V91.324H49.8652V98.668H53.3332ZM55.9555 94.474C56.1475 94.434 56.3315 94.406 56.5075 94.39C56.6835 94.37 56.8535 94.36 57.0175 94.36C57.4735 94.36 57.8755 94.428 58.2235 94.564C58.5715 94.7 58.8635 94.888 59.0995 95.128C59.3355 95.368 59.5135 95.65 59.6335 95.974C59.7535 96.294 59.8135 96.64 59.8135 97.012C59.8135 97.472 59.7315 97.892 59.5675 98.272C59.4075 98.652 59.1835 98.978 58.8955 99.25C58.6075 99.518 58.2655 99.726 57.8695 99.874C57.4775 100.022 57.0495 100.096 56.5855 100.096C56.3135 100.096 56.0555 100.068 55.8115 100.012C55.5675 99.956 55.3375 99.882 55.1215 99.79C54.9095 99.694 54.7115 99.586 54.5275 99.466C54.3475 99.342 54.1855 99.212 54.0415 99.076L54.4975 98.446C54.5935 98.31 54.7195 98.242 54.8755 98.242C54.9755 98.242 55.0775 98.274 55.1815 98.338C55.2855 98.402 55.4035 98.472 55.5355 98.548C55.6715 98.624 55.8295 98.694 56.0095 98.758C56.1935 98.822 56.4135 98.854 56.6695 98.854C56.9415 98.854 57.1815 98.81 57.3895 98.722C57.5975 98.634 57.7695 98.512 57.9055 98.356C58.0455 98.196 58.1495 98.008 58.2175 97.792C58.2895 97.572 58.3255 97.334 58.3255 97.078C58.3255 96.606 58.1875 96.238 57.9115 95.974C57.6395 95.706 57.2355 95.572 56.6995 95.572C56.2875 95.572 55.8655 95.648 55.4335 95.8L54.5095 95.536L55.2295 91.324H59.5135V91.954C59.5135 92.166 59.4475 92.338 59.3155 92.47C59.1835 92.602 58.9595 92.668 58.6435 92.668H56.2615L55.9555 94.474Z" fill="white"/>
<defs>
<clipPath id="clip0_151_608">
<rect width="80" height="80" fill="white"/>
</clipPath>
</defs>
</svg>
