<svg width="80" height="102" viewBox="0 0 80 102" fill="none" xmlns="http://www.w3.org/2000/svg">
<g clip-path="url(#clip0_151_607)">
<path d="M0 0H80V80H0V0Z" fill="#F7DF1E"/>
<path d="M21.0353 66.8539L27.1574 63.1489C28.3385 65.243 29.4129 67.0148 31.9901 67.0148C34.4604 67.0148 36.0179 66.0484 36.0179 62.2897V36.7278H43.5359V62.396C43.5359 70.1826 38.9715 73.7269 32.3124 73.7269C26.2983 73.7269 22.8072 70.6121 21.0352 66.8532" fill="black"/>
<path d="M47.6191 66.0482L53.7405 62.5039C55.352 65.1356 57.4463 67.0686 61.1515 67.0686C64.2665 67.0686 66.2529 65.5112 66.2529 63.3631C66.2529 60.7855 64.2124 59.8725 60.7755 58.3693L58.8965 57.5632C53.4723 55.2545 49.8743 52.3547 49.8743 46.2327C49.8743 40.5941 54.1702 36.2979 60.8831 36.2979C65.6626 36.2979 69.0994 37.9627 71.5694 42.3126L65.7159 46.0714C64.427 43.7625 63.0312 42.8497 60.8833 42.8497C58.6815 42.8497 57.2852 44.2459 57.2852 46.0714C57.2852 48.3269 58.6815 49.2401 61.9032 50.6364L63.7826 51.4418C70.173 54.1808 73.7711 56.9729 73.7711 63.2557C73.7711 70.0224 68.4548 73.7274 61.3127 73.7274C54.3317 73.7274 49.8207 70.3982 47.6193 66.0482" fill="black"/>
</g>
<path d="M9.272 96.916C9.272 97.404 9.212 97.844 9.092 98.236C8.972 98.628 8.792 98.962 8.552 99.238C8.316 99.514 8.02 99.726 7.664 99.874C7.308 100.022 6.894 100.096 6.422 100.096C6.206 100.096 5.994 100.082 5.786 100.054C5.578 100.03 5.36 99.99 5.132 99.934C5.144 99.774 5.158 99.614 5.174 99.454C5.19 99.294 5.204 99.134 5.216 98.974C5.228 98.886 5.262 98.816 5.318 98.764C5.378 98.708 5.462 98.68 5.57 98.68C5.638 98.68 5.726 98.694 5.834 98.722C5.946 98.75 6.086 98.764 6.254 98.764C6.482 98.764 6.684 98.732 6.86 98.668C7.036 98.6 7.182 98.494 7.298 98.35C7.418 98.206 7.508 98.02 7.568 97.792C7.628 97.56 7.658 97.28 7.658 96.952V91.324H9.272V96.916ZM15.5773 96.724L14.5213 93.838C14.4693 93.71 14.4153 93.558 14.3593 93.382C14.3033 93.206 14.2473 93.016 14.1913 92.812C14.1393 93.016 14.0853 93.208 14.0293 93.388C13.9733 93.564 13.9193 93.718 13.8673 93.85L12.8173 96.724H15.5773ZM18.4273 100H17.1793C17.0393 100 16.9253 99.966 16.8373 99.898C16.7493 99.826 16.6833 99.738 16.6393 99.634L15.9913 97.864H12.3973L11.7493 99.634C11.7173 99.726 11.6553 99.81 11.5633 99.886C11.4713 99.962 11.3573 100 11.2213 100H9.96134L13.3753 91.324H15.0193L18.4273 100ZM26.068 91.324L22.564 100H21.106L17.602 91.324H18.898C19.038 91.324 19.152 91.358 19.24 91.426C19.328 91.494 19.394 91.582 19.438 91.69L21.484 96.982C21.552 97.154 21.616 97.344 21.676 97.552C21.74 97.756 21.8 97.97 21.856 98.194C21.904 97.97 21.956 97.756 22.012 97.552C22.068 97.344 22.13 97.154 22.198 96.982L24.232 91.69C24.264 91.598 24.326 91.514 24.418 91.438C24.514 91.362 24.63 91.324 24.766 91.324H26.068ZM30.8586 96.724L29.8026 93.838C29.7506 93.71 29.6966 93.558 29.6406 93.382C29.5846 93.206 29.5286 93.016 29.4726 92.812C29.4206 93.016 29.3666 93.208 29.3106 93.388C29.2546 93.564 29.2006 93.718 29.1486 93.85L28.0986 96.724H30.8586ZM33.7086 100H32.4606C32.3206 100 32.2066 99.966 32.1186 99.898C32.0306 99.826 31.9646 99.738 31.9206 99.634L31.2726 97.864H27.6786L27.0306 99.634C26.9986 99.726 26.9366 99.81 26.8446 99.886C26.7526 99.962 26.6386 100 26.5026 100H25.2426L28.6566 91.324H30.3006L33.7086 100ZM39.2266 92.902C39.1786 92.986 39.1266 93.048 39.0706 93.088C39.0186 93.124 38.9526 93.142 38.8726 93.142C38.7886 93.142 38.6966 93.112 38.5966 93.052C38.5006 92.988 38.3846 92.918 38.2486 92.842C38.1126 92.766 37.9526 92.698 37.7686 92.638C37.5886 92.574 37.3746 92.542 37.1266 92.542C36.9026 92.542 36.7066 92.57 36.5386 92.626C36.3706 92.678 36.2286 92.752 36.1126 92.848C36.0006 92.944 35.9166 93.06 35.8606 93.196C35.8046 93.328 35.7766 93.474 35.7766 93.634C35.7766 93.838 35.8326 94.008 35.9446 94.144C36.0606 94.28 36.2126 94.396 36.4006 94.492C36.5886 94.588 36.8026 94.674 37.0426 94.75C37.2826 94.826 37.5286 94.908 37.7806 94.996C38.0326 95.08 38.2786 95.18 38.5186 95.296C38.7586 95.408 38.9726 95.552 39.1606 95.728C39.3486 95.9 39.4986 96.112 39.6106 96.364C39.7266 96.616 39.7846 96.922 39.7846 97.282C39.7846 97.674 39.7166 98.042 39.5806 98.386C39.4486 98.726 39.2526 99.024 38.9926 99.28C38.7366 99.532 38.4226 99.732 38.0506 99.88C37.6786 100.024 37.2526 100.096 36.7726 100.096C36.4966 100.096 36.2246 100.068 35.9566 100.012C35.6886 99.96 35.4306 99.884 35.1826 99.784C34.9386 99.684 34.7086 99.564 34.4926 99.424C34.2766 99.284 34.0846 99.128 33.9166 98.956L34.3906 98.182C34.4306 98.126 34.4826 98.08 34.5466 98.044C34.6106 98.004 34.6786 97.984 34.7506 97.984C34.8506 97.984 34.9586 98.026 35.0746 98.11C35.1906 98.19 35.3286 98.28 35.4886 98.38C35.6486 98.48 35.8346 98.572 36.0466 98.656C36.2626 98.736 36.5206 98.776 36.8206 98.776C37.2806 98.776 37.6366 98.668 37.8886 98.452C38.1406 98.232 38.2666 97.918 38.2666 97.51C38.2666 97.282 38.2086 97.096 38.0926 96.952C37.9806 96.808 37.8306 96.688 37.6426 96.592C37.4546 96.492 37.2406 96.408 37.0006 96.34C36.7606 96.272 36.5166 96.198 36.2686 96.118C36.0206 96.038 35.7766 95.942 35.5366 95.83C35.2966 95.718 35.0826 95.572 34.8946 95.392C34.7066 95.212 34.5546 94.988 34.4386 94.72C34.3266 94.448 34.2706 94.114 34.2706 93.718C34.2706 93.402 34.3326 93.094 34.4566 92.794C34.5846 92.494 34.7686 92.228 35.0086 91.996C35.2486 91.764 35.5446 91.578 35.8966 91.438C36.2486 91.298 36.6526 91.228 37.1086 91.228C37.6206 91.228 38.0926 91.308 38.5246 91.468C38.9566 91.628 39.3246 91.852 39.6286 92.14L39.2266 92.902ZM47.1506 97.954C47.2386 97.954 47.3166 97.988 47.3846 98.056L48.0206 98.746C47.6686 99.182 47.2346 99.516 46.7186 99.748C46.2066 99.98 45.5906 100.096 44.8706 100.096C44.2266 100.096 43.6466 99.986 43.1306 99.766C42.6186 99.546 42.1806 99.24 41.8166 98.848C41.4526 98.456 41.1726 97.988 40.9766 97.444C40.7846 96.9 40.6886 96.306 40.6886 95.662C40.6886 95.01 40.7926 94.414 41.0006 93.874C41.2086 93.33 41.5006 92.862 41.8766 92.47C42.2566 92.078 42.7086 91.774 43.2326 91.558C43.7566 91.338 44.3366 91.228 44.9726 91.228C45.6046 91.228 46.1646 91.332 46.6526 91.54C47.1446 91.748 47.5626 92.02 47.9066 92.356L47.3666 93.106C47.3346 93.154 47.2926 93.196 47.2406 93.232C47.1926 93.268 47.1246 93.286 47.0366 93.286C46.9766 93.286 46.9146 93.27 46.8506 93.238C46.7866 93.202 46.7166 93.16 46.6406 93.112C46.5646 93.06 46.4766 93.004 46.3766 92.944C46.2766 92.884 46.1606 92.83 46.0286 92.782C45.8966 92.73 45.7426 92.688 45.5666 92.656C45.3946 92.62 45.1946 92.602 44.9666 92.602C44.5786 92.602 44.2226 92.672 43.8986 92.812C43.5786 92.948 43.3026 93.148 43.0706 93.412C42.8386 93.672 42.6586 93.992 42.5306 94.372C42.4026 94.748 42.3386 95.178 42.3386 95.662C42.3386 96.15 42.4066 96.584 42.5426 96.964C42.6826 97.344 42.8706 97.664 43.1066 97.924C43.3426 98.184 43.6206 98.384 43.9406 98.524C44.2606 98.66 44.6046 98.728 44.9726 98.728C45.1926 98.728 45.3906 98.716 45.5666 98.692C45.7466 98.668 45.9106 98.63 46.0586 98.578C46.2106 98.526 46.3526 98.46 46.4846 98.38C46.6206 98.296 46.7546 98.194 46.8866 98.074C46.9266 98.038 46.9686 98.01 47.0126 97.99C47.0566 97.966 47.1026 97.954 47.1506 97.954ZM51.7482 95.452C52.0522 95.452 52.3162 95.414 52.5402 95.338C52.7682 95.262 52.9542 95.158 53.0982 95.026C53.2462 94.89 53.3562 94.73 53.4282 94.546C53.5002 94.362 53.5362 94.16 53.5362 93.94C53.5362 93.5 53.3902 93.162 53.0982 92.926C52.8102 92.69 52.3682 92.572 51.7722 92.572H50.7402V95.452H51.7482ZM55.9002 100H54.4422C54.1662 100 53.9662 99.892 53.8422 99.676L52.0182 96.898C51.9502 96.794 51.8742 96.72 51.7902 96.676C51.7102 96.632 51.5902 96.61 51.4302 96.61H50.7402V100H49.1262V91.324H51.7722C52.3602 91.324 52.8642 91.386 53.2842 91.51C53.7082 91.63 54.0542 91.8 54.3222 92.02C54.5942 92.24 54.7942 92.504 54.9222 92.812C55.0502 93.116 55.1142 93.452 55.1142 93.82C55.1142 94.112 55.0702 94.388 54.9822 94.648C54.8982 94.908 54.7742 95.144 54.6102 95.356C54.4502 95.568 54.2502 95.754 54.0102 95.914C53.7742 96.074 53.5042 96.2 53.2002 96.292C53.3042 96.352 53.4002 96.424 53.4882 96.508C53.5762 96.588 53.6562 96.684 53.7282 96.796L55.9002 100ZM58.4571 100H56.8371V91.324H58.4571V100ZM63.2196 95.686C63.5156 95.686 63.7736 95.65 63.9936 95.578C64.2136 95.502 64.3956 95.396 64.5396 95.26C64.6876 95.12 64.7976 94.952 64.8696 94.756C64.9416 94.556 64.9776 94.334 64.9776 94.09C64.9776 93.858 64.9416 93.648 64.8696 93.46C64.7976 93.272 64.6896 93.112 64.5456 92.98C64.4016 92.848 64.2196 92.748 63.9996 92.68C63.7796 92.608 63.5196 92.572 63.2196 92.572H62.0136V95.686H63.2196ZM63.2196 91.324C63.7996 91.324 64.3016 91.392 64.7256 91.528C65.1496 91.664 65.4996 91.854 65.7756 92.098C66.0516 92.342 66.2556 92.634 66.3876 92.974C66.5236 93.314 66.5916 93.686 66.5916 94.09C66.5916 94.51 66.5216 94.896 66.3816 95.248C66.2416 95.596 66.0316 95.896 65.7516 96.148C65.4716 96.4 65.1196 96.596 64.6956 96.736C64.2756 96.876 63.7836 96.946 63.2196 96.946H62.0136V100H60.3996V91.324H63.2196ZM73.8893 92.65H71.2733V100H69.6593V92.65H67.0433V91.324H73.8893V92.65Z" fill="white"/>
<defs>
<clipPath id="clip0_151_607">
<rect width="80" height="80" fill="white"/>
</clipPath>
</defs>
</svg>
