<svg width="91" height="80" viewBox="0 0 91 80" fill="none" xmlns="http://www.w3.org/2000/svg">
<path d="M74.8203 25.9295C73.8763 25.6084 72.8981 25.3047 71.8909 25.0174C72.0564 24.3498 72.2084 23.6909 72.3434 23.0432C74.5609 12.4074 73.1111 3.83909 68.1602 1.01805C63.4129 -1.68695 55.6491 1.13345 47.808 7.87603C47.054 8.52439 46.2979 9.21085 45.5421 9.93027C45.0385 9.45428 44.5357 8.9943 44.0343 8.55432C35.8166 1.34472 27.5796 -1.69351 22.6336 1.13569C17.8909 3.84854 16.4864 11.9035 18.4824 21.9831C18.6752 22.9567 18.9005 23.951 19.1553 24.9618C17.9895 25.2888 16.8641 25.6374 15.7873 26.0082C6.15293 29.3272 0 34.5288 0 39.9243C0 45.4967 6.60517 51.086 16.6401 54.475C17.432 54.7425 18.2537 54.9954 19.1005 55.2354C18.8257 56.3287 18.5866 57.4001 18.3859 58.4451C16.4826 68.3498 17.969 76.2144 22.6991 78.9102C27.5848 81.6941 35.7845 78.8325 43.7689 71.9363C44.4 71.3912 45.0333 70.8131 45.6678 70.2071C46.4902 70.9896 47.3112 71.7302 48.1279 72.4248C55.8618 79.0008 63.5002 81.6561 68.2259 78.9529C73.1069 76.161 74.6931 67.7124 72.6337 57.4334C72.4764 56.6483 72.2934 55.8463 72.0878 55.0301C72.6637 54.8619 73.229 54.6882 73.7802 54.5077C84.2124 51.0924 91 45.5711 91 39.9243C91 34.5093 84.6487 29.2726 74.8203 25.9295ZM72.5576 50.8616C72.06 51.0244 71.5494 51.1817 71.0292 51.3342C69.8775 47.7317 68.3231 43.9009 66.421 39.943C68.2362 36.0794 69.7304 32.2976 70.8498 28.7184C71.7807 28.9845 72.6842 29.2653 73.5549 29.5615C81.9758 32.4259 87.1125 36.661 87.1125 39.9243C87.1125 43.4002 81.5651 47.9125 72.5576 50.8616ZM68.8201 58.1794C69.7307 62.7246 69.8608 66.8341 69.2576 70.0466C68.7156 72.9333 67.6256 74.8579 66.278 75.6287C63.4102 77.2689 57.2773 75.1368 50.6632 69.513C49.905 68.8683 49.1413 68.1799 48.3751 67.4514C50.9392 64.6804 53.5019 61.4591 56.003 57.8815C60.4022 57.4958 64.5584 56.8652 68.3275 56.0043C68.5131 56.7442 68.678 57.4699 68.8201 58.1794ZM31.024 75.3452C28.222 76.323 25.9905 76.351 24.6415 75.5824C21.7711 73.9465 20.5778 67.6319 22.2055 59.1614C22.3919 58.1914 22.6139 57.1949 22.8696 56.1764C26.5974 56.9909 30.7232 57.577 35.1329 57.9302C37.6508 61.431 40.2875 64.6488 42.9446 67.4663C42.3641 68.0201 41.7858 68.5473 41.2108 69.044C37.6802 72.0935 34.142 74.257 31.024 75.3452ZM17.8974 50.8403C13.4601 49.3418 9.79567 47.3941 7.28386 45.2688C5.02685 43.3589 3.88733 41.4628 3.88733 39.9243C3.88733 36.6501 8.82752 32.4739 17.0669 29.6355C18.0666 29.291 19.1132 28.9664 20.1992 28.6615C21.338 32.3216 22.8317 36.1482 24.6344 40.0177C22.8084 43.9447 21.2934 47.8323 20.1435 51.5352C19.3693 51.3153 18.6191 51.0839 17.8974 50.8403ZM22.2975 21.2455C20.5873 12.6095 21.7231 6.09484 24.5813 4.46009C27.6256 2.71858 34.3576 5.2016 41.453 11.4267C41.9065 11.8246 42.3618 12.2411 42.8184 12.6719C40.1745 15.4771 37.5619 18.6708 35.0663 22.1509C30.7865 22.5428 26.6897 23.1725 22.9231 24.0156C22.6863 23.0744 22.4765 22.1496 22.2975 21.2455ZM61.5508 30.8227C60.6504 29.2859 59.7259 27.7854 58.7836 26.3259C61.687 26.6886 64.4689 27.17 67.0812 27.7592C66.2969 30.2428 65.3194 32.8396 64.1687 35.5018C63.3433 33.9533 62.4702 32.392 61.5508 30.8227ZM45.5434 15.4171C47.3365 17.3366 49.1322 19.4796 50.8984 21.8049C49.1186 21.7218 47.3168 21.6786 45.5 21.6786C43.7004 21.6786 41.9118 21.7208 40.143 21.8025C41.911 19.4989 43.7223 17.3587 45.5434 15.4171ZM29.4335 30.8493C28.534 32.3904 27.6772 33.9432 26.8647 35.4989C25.7326 32.8461 24.7641 30.2374 23.973 27.7185C26.5694 27.1444 29.3381 26.675 32.2231 26.3192C31.2674 27.7922 30.3354 29.3037 29.4335 30.8489V30.8493ZM32.3062 53.8033C29.3254 53.4747 26.5151 53.0295 23.9194 52.4712C24.7231 49.9074 25.713 47.243 26.869 44.5331C27.6836 46.0876 28.5439 47.6411 29.4489 49.1855H29.449C30.3709 50.759 31.3259 52.3003 32.3062 53.8033ZM45.651 64.7022C43.8085 62.7379 41.9706 60.5651 40.1758 58.2279C41.9182 58.2954 43.6946 58.33 45.5 58.33C47.3548 58.33 49.1884 58.2887 50.9932 58.2093C49.2211 60.5886 47.4319 62.7648 45.651 64.7022ZM64.2058 44.3949C65.4221 47.1342 66.4474 49.7846 67.2615 52.3048C64.6231 52.8995 61.7743 53.3785 58.7729 53.7345C59.7175 52.2553 60.65 50.7291 61.5664 49.1591C62.4934 47.5708 63.3735 45.9801 64.2058 44.3949ZM58.199 47.2401C56.7765 49.6772 55.3161 52.0037 53.8335 54.1997C51.1331 54.3905 48.3434 54.4888 45.5 54.4888C42.6681 54.4888 39.9135 54.4019 37.261 54.2318C35.7186 52.0069 34.2264 49.6735 32.813 47.2611H32.8133C31.4036 44.8552 30.1062 42.429 28.9305 40.0164C30.1059 37.5983 31.3999 35.1693 32.8015 32.7678L32.8012 32.7683C34.2065 30.3603 35.6855 28.0383 37.2137 25.8274C39.92 25.6252 42.6952 25.5198 45.4998 25.5198H45.5C48.3173 25.5198 51.096 25.626 53.8016 25.8299C55.3064 28.0247 56.7753 30.3392 58.1862 32.7475C59.613 35.1828 60.9238 37.5955 62.1091 39.9619C60.9273 42.3689 59.6195 44.8059 58.199 47.2401ZM66.2184 4.34581C69.2657 6.08219 70.4507 13.085 68.5361 22.2679C68.414 22.8538 68.2765 23.4506 68.1271 24.0555C64.3517 23.1947 60.2521 22.5542 55.9598 22.1563C53.4593 18.6379 50.8681 15.4393 48.2672 12.6702C48.9665 12.0055 49.6648 11.3717 50.3602 10.7736C57.0784 4.99657 63.3575 2.7157 66.2184 4.34581ZM45.5 31.895C49.9878 31.895 53.626 35.4898 53.626 39.9243C53.626 44.3586 49.9878 47.9535 45.5 47.9535C41.0122 47.9535 37.374 44.3586 37.374 39.9243C37.374 35.4898 41.0122 31.895 45.5 31.895Z" fill="#00D8FF"/>
</svg>
