<svg width="129" height="102" viewBox="0 0 129 102" fill="none" xmlns="http://www.w3.org/2000/svg">
<path d="M93.8203 25.9295C92.8763 25.6084 91.8981 25.3047 90.8909 25.0174C91.0564 24.3498 91.2084 23.6909 91.3434 23.0432C93.5609 12.4074 92.1111 3.83909 87.1602 1.01805C82.4129 -1.68695 74.6491 1.13345 66.808 7.87603C66.054 8.52439 65.2979 9.21085 64.5421 9.93027C64.0385 9.45428 63.5357 8.9943 63.0343 8.55432C54.8166 1.34472 46.5796 -1.69351 41.6336 1.13569C36.8909 3.84854 35.4864 11.9035 37.4824 21.9831C37.6752 22.9567 37.9005 23.951 38.1553 24.9618C36.9895 25.2888 35.8641 25.6374 34.7873 26.0082C25.1529 29.3272 19 34.5288 19 39.9243C19 45.4967 25.6052 51.086 35.6401 54.475C36.432 54.7425 37.2537 54.9954 38.1005 55.2354C37.8257 56.3287 37.5866 57.4001 37.3859 58.4451C35.4826 68.3498 36.969 76.2144 41.6991 78.9102C46.5848 81.6941 54.7845 78.8325 62.7689 71.9363C63.4 71.3912 64.0333 70.8131 64.6678 70.2071C65.4902 70.9896 66.3112 71.7302 67.1279 72.4248C74.8618 79.0007 82.5002 81.6561 87.2259 78.9529C92.1068 76.161 93.6931 67.7124 91.6337 57.4334C91.4764 56.6483 91.2934 55.8463 91.0878 55.0301C91.6637 54.8619 92.229 54.6882 92.7802 54.5077C103.212 51.0924 110 45.5711 110 39.9243C110 34.5093 103.649 29.2726 93.8203 25.9295ZM91.5576 50.8616C91.06 51.0244 90.5494 51.1817 90.0292 51.3342C88.8775 47.7317 87.3231 43.9009 85.421 39.943C87.2362 36.0794 88.7304 32.2976 89.8498 28.7184C90.7807 28.9845 91.6842 29.2653 92.5549 29.5615C100.976 32.4259 106.113 36.661 106.113 39.9243C106.113 43.4002 100.565 47.9125 91.5576 50.8616ZM87.8201 58.1794C88.7307 62.7246 88.8608 66.8341 88.2576 70.0466C87.7156 72.9333 86.6256 74.8579 85.278 75.6287C82.4102 77.2689 76.2773 75.1368 69.6632 69.513C68.905 68.8683 68.1413 68.1799 67.3751 67.4514C69.9392 64.6805 72.5019 61.4591 75.003 57.8815C79.4022 57.4958 83.5584 56.8652 87.3275 56.0043C87.5131 56.7442 87.678 57.4699 87.8201 58.1794ZM50.024 75.3452C47.222 76.323 44.9905 76.351 43.6415 75.5824C40.7711 73.9465 39.5778 67.6319 41.2055 59.1614C41.3919 58.1914 41.6139 57.1949 41.8696 56.1764C45.5974 56.9909 49.7232 57.577 54.1329 57.9302C56.6508 61.431 59.2875 64.6488 61.9446 67.4663C61.3641 68.0201 60.7858 68.5472 60.2108 69.044C56.6801 72.0935 53.142 74.257 50.024 75.3452ZM36.8974 50.8403C32.4601 49.3418 28.7957 47.3941 26.2839 45.2688C24.0268 43.3589 22.8873 41.4628 22.8873 39.9243C22.8873 36.6501 27.8275 32.4739 36.0669 29.6355C37.0666 29.291 38.1132 28.9664 39.1992 28.6615C40.3379 32.3216 41.8317 36.1482 43.6344 40.0177C41.8084 43.9447 40.2934 47.8323 39.1435 51.5352C38.3693 51.3153 37.6191 51.0839 36.8974 50.8403ZM41.2975 21.2455C39.5873 12.6095 40.7231 6.09484 43.5813 4.46009C46.6256 2.71858 53.3576 5.2016 60.453 11.4267C60.9065 11.8246 61.3618 12.2411 61.8184 12.6719C59.1745 15.4771 56.5619 18.6708 54.0663 22.1509C49.7865 22.5428 45.6897 23.1725 41.9231 24.0156C41.6863 23.0744 41.4765 22.1496 41.2975 21.2455ZM80.5508 30.8227C79.6504 29.2859 78.7259 27.7854 77.7836 26.3259C80.687 26.6886 83.4688 27.17 86.0812 27.7592C85.2969 30.2428 84.3194 32.8396 83.1687 35.5018C82.3433 33.9533 81.4702 32.392 80.5508 30.8227ZM64.5434 15.4171C66.3365 17.3366 68.1322 19.4796 69.8984 21.8049C68.1186 21.7218 66.3168 21.6786 64.5 21.6786C62.7004 21.6786 60.9118 21.7208 59.143 21.8025C60.911 19.4989 62.7223 17.3587 64.5434 15.4171ZM48.4335 30.8493C47.534 32.3904 46.6772 33.9432 45.8647 35.4989C44.7326 32.8461 43.7641 30.2374 42.973 27.7185C45.5694 27.1444 48.3381 26.675 51.2231 26.3192C50.2674 27.7922 49.3354 29.3037 48.4335 30.8489V30.8493ZM51.3062 53.8033C48.3254 53.4747 45.5151 53.0295 42.9194 52.4712C43.7231 49.9074 44.713 47.243 45.869 44.5331C46.6836 46.0876 47.5439 47.6411 48.4489 49.1855H48.449C49.3709 50.759 50.3259 52.3003 51.3062 53.8033ZM64.651 64.7022C62.8085 62.7379 60.9706 60.5651 59.1758 58.2279C60.9182 58.2954 62.6946 58.33 64.5 58.33C66.3548 58.33 68.1884 58.2887 69.9932 58.2093C68.2211 60.5886 66.4319 62.7648 64.651 64.7022ZM83.2058 44.3949C84.4221 47.1342 85.4474 49.7846 86.2615 52.3048C83.6231 52.8995 80.7743 53.3785 77.7729 53.7345C78.7175 52.2553 79.65 50.7291 80.5664 49.1591C81.4934 47.5708 82.3735 45.9801 83.2058 44.3949ZM77.199 47.2401C75.7765 49.6772 74.3161 52.0037 72.8335 54.1997C70.1331 54.3905 67.3434 54.4888 64.5 54.4888C61.6681 54.4888 58.9135 54.4019 56.261 54.2318C54.7186 52.0069 53.2264 49.6735 51.813 47.2611H51.8133C50.4036 44.8552 49.1062 42.429 47.9305 40.0164C49.1059 37.5983 50.3999 35.1693 51.8015 32.7678L51.8012 32.7683C53.2065 30.3603 54.6855 28.0383 56.2137 25.8274C58.92 25.6252 61.6952 25.5198 64.4998 25.5198H64.5C67.3173 25.5198 70.096 25.626 72.8016 25.8299C74.3064 28.0247 75.7753 30.3392 77.1862 32.7475C78.613 35.1828 79.9238 37.5955 81.1091 39.9619C79.9273 42.3689 78.6195 44.8059 77.199 47.2401ZM85.2184 4.34581C88.2657 6.08219 89.4507 13.085 87.5361 22.2679C87.414 22.8538 87.2765 23.4506 87.1271 24.0555C83.3517 23.1947 79.2521 22.5542 74.9598 22.1563C72.4593 18.6379 69.8681 15.4393 67.2672 12.6702C67.9665 12.0055 68.6648 11.3717 69.3602 10.7736C76.0784 4.99657 82.3575 2.7157 85.2184 4.34581ZM64.5 31.895C68.9878 31.895 72.626 35.4898 72.626 39.9243C72.626 44.3586 68.9878 47.9535 64.5 47.9535C60.0122 47.9535 56.374 44.3586 56.374 39.9243C56.374 35.4898 60.0122 31.895 64.5 31.895Z" fill="#00D8FF"/>
<path d="M49.088 95.452C49.392 95.452 49.656 95.414 49.88 95.338C50.108 95.262 50.294 95.158 50.438 95.026C50.586 94.89 50.696 94.73 50.768 94.546C50.84 94.362 50.876 94.16 50.876 93.94C50.876 93.5 50.73 93.162 50.438 92.926C50.15 92.69 49.708 92.572 49.112 92.572H48.08V95.452H49.088ZM53.24 100H51.782C51.506 100 51.306 99.892 51.182 99.676L49.358 96.898C49.29 96.794 49.214 96.72 49.13 96.676C49.05 96.632 48.93 96.61 48.77 96.61H48.08V100H46.466V91.324H49.112C49.7 91.324 50.204 91.386 50.624 91.51C51.048 91.63 51.394 91.8 51.662 92.02C51.934 92.24 52.134 92.504 52.262 92.812C52.39 93.116 52.454 93.452 52.454 93.82C52.454 94.112 52.41 94.388 52.322 94.648C52.238 94.908 52.114 95.144 51.95 95.356C51.79 95.568 51.59 95.754 51.35 95.914C51.114 96.074 50.844 96.2 50.54 96.292C50.644 96.352 50.74 96.424 50.828 96.508C50.916 96.588 50.996 96.684 51.068 96.796L53.24 100ZM55.7969 92.608V95.014H58.8329V96.256H55.7969V98.71H59.6489V100H54.1769V91.324H59.6489V92.608H55.7969ZM65.6633 96.724L64.6073 93.838C64.5553 93.71 64.5013 93.558 64.4453 93.382C64.3893 93.206 64.3333 93.016 64.2773 92.812C64.2253 93.016 64.1713 93.208 64.1153 93.388C64.0593 93.564 64.0053 93.718 63.9533 93.85L62.9033 96.724H65.6633ZM68.5133 100H67.2653C67.1253 100 67.0113 99.966 66.9233 99.898C66.8353 99.826 66.7693 99.738 66.7253 99.634L66.0773 97.864H62.4833L61.8353 99.634C61.8033 99.726 61.7413 99.81 61.6493 99.886C61.5573 99.962 61.4433 100 61.3073 100H60.0473L63.4613 91.324H65.1053L68.5133 100ZM75.1115 97.954C75.1995 97.954 75.2775 97.988 75.3455 98.056L75.9815 98.746C75.6295 99.182 75.1955 99.516 74.6795 99.748C74.1675 99.98 73.5515 100.096 72.8315 100.096C72.1875 100.096 71.6075 99.986 71.0915 99.766C70.5795 99.546 70.1415 99.24 69.7775 98.848C69.4135 98.456 69.1335 97.988 68.9375 97.444C68.7455 96.9 68.6495 96.306 68.6495 95.662C68.6495 95.01 68.7535 94.414 68.9615 93.874C69.1695 93.33 69.4615 92.862 69.8375 92.47C70.2175 92.078 70.6695 91.774 71.1935 91.558C71.7175 91.338 72.2975 91.228 72.9335 91.228C73.5655 91.228 74.1255 91.332 74.6135 91.54C75.1055 91.748 75.5235 92.02 75.8675 92.356L75.3275 93.106C75.2955 93.154 75.2535 93.196 75.2015 93.232C75.1535 93.268 75.0855 93.286 74.9975 93.286C74.9375 93.286 74.8755 93.27 74.8115 93.238C74.7475 93.202 74.6775 93.16 74.6015 93.112C74.5255 93.06 74.4375 93.004 74.3375 92.944C74.2375 92.884 74.1215 92.83 73.9895 92.782C73.8575 92.73 73.7035 92.688 73.5275 92.656C73.3555 92.62 73.1555 92.602 72.9275 92.602C72.5395 92.602 72.1835 92.672 71.8595 92.812C71.5395 92.948 71.2635 93.148 71.0315 93.412C70.7995 93.672 70.6195 93.992 70.4915 94.372C70.3635 94.748 70.2995 95.178 70.2995 95.662C70.2995 96.15 70.3675 96.584 70.5035 96.964C70.6435 97.344 70.8315 97.664 71.0675 97.924C71.3035 98.184 71.5815 98.384 71.9015 98.524C72.2215 98.66 72.5655 98.728 72.9335 98.728C73.1535 98.728 73.3515 98.716 73.5275 98.692C73.7075 98.668 73.8715 98.63 74.0195 98.578C74.1715 98.526 74.3135 98.46 74.4455 98.38C74.5815 98.296 74.7155 98.194 74.8475 98.074C74.8875 98.038 74.9295 98.01 74.9735 97.99C75.0175 97.966 75.0635 97.954 75.1115 97.954ZM83.1471 92.65H80.5311V100H78.9171V92.65H76.3011V91.324H83.1471V92.65Z" fill="white"/>
</svg>
