<svg width="105" height="63" viewBox="0 0 105 63" fill="none" xmlns="http://www.w3.org/2000/svg">
<path d="M52.5 0C38.5 0 29.75 7 26.25 21C31.5 14 37.625 11.375 44.625 13.125C48.6189 14.1235 51.4735 17.0209 54.6332 20.2282C59.7806 25.453 65.738 31.5 78.75 31.5C92.75 31.5 101.5 24.5 105 10.5C99.75 17.5 93.625 20.125 86.625 18.375C82.6311 17.3765 79.7765 14.4791 76.6167 11.2717C71.4694 6.04703 65.512 0 52.5 0ZM26.25 31.5C12.25 31.5 3.5 38.5 0 52.5C5.25 45.5 11.375 42.875 18.375 44.625C22.3689 45.6235 25.2235 48.5209 28.3832 51.7282C33.5306 56.953 39.488 63 52.5 63C66.5 63 75.25 56 78.75 42C73.5 49 67.375 51.625 60.375 49.875C56.3811 48.8765 53.5265 45.9791 50.3667 42.7717C45.2194 37.547 39.262 31.5 26.25 31.5Z" fill="url(#paint0_linear_151_567)"/>
<defs>
<linearGradient id="paint0_linear_151_567" x1="-2.91667" y1="20.16" x2="87.768" y2="72.4467" gradientUnits="userSpaceOnUse">
<stop stop-color="#2298BD"/>
<stop offset="1" stop-color="#0ED7B5"/>
</linearGradient>
</defs>
</svg>
