<svg width="105" height="85" viewBox="0 0 105 85" fill="none" xmlns="http://www.w3.org/2000/svg">
<path d="M52.5 0C38.5 0 29.75 7 26.25 21C31.5 14 37.625 11.375 44.625 13.125C48.6189 14.1235 51.4735 17.0209 54.6332 20.2282C59.7806 25.453 65.738 31.5 78.75 31.5C92.75 31.5 101.5 24.5 105 10.5C99.75 17.5 93.625 20.125 86.625 18.375C82.6311 17.3765 79.7765 14.4791 76.6167 11.2717C71.4694 6.04703 65.512 0 52.5 0ZM26.25 31.5C12.25 31.5 3.5 38.5 0 52.5C5.25 45.5 11.375 42.875 18.375 44.625C22.3689 45.6235 25.2235 48.5209 28.3832 51.7282C33.5306 56.953 39.488 63 52.5 63C66.5 63 75.25 56 78.75 42C73.5 49 67.375 51.625 60.375 49.875C56.3811 48.8765 53.5265 45.9791 50.3667 42.7717C45.2194 37.547 39.262 31.5 26.25 31.5Z" fill="url(#paint0_linear_151_606)"/>
<path d="M18.026 75.65H15.41V83H13.796V75.65H11.18V74.324H18.026V75.65ZM22.9016 79.724L21.8456 76.838C21.7936 76.71 21.7396 76.558 21.6836 76.382C21.6276 76.206 21.5716 76.016 21.5156 75.812C21.4636 76.016 21.4096 76.208 21.3536 76.388C21.2976 76.564 21.2436 76.718 21.1916 76.85L20.1416 79.724H22.9016ZM25.7516 83H24.5036C24.3636 83 24.2496 82.966 24.1616 82.898C24.0736 82.826 24.0076 82.738 23.9636 82.634L23.3156 80.864H19.7216L19.0736 82.634C19.0416 82.726 18.9796 82.81 18.8876 82.886C18.7956 82.962 18.6816 83 18.5456 83H17.2856L20.6996 74.324H22.3436L25.7516 83ZM28.2696 83H26.6496V74.324H28.2696V83ZM35.2941 81.668V83H30.2121V74.324H31.8261V81.668H35.2941ZM47.1936 74.324L44.4996 83H43.0416L41.1456 77.072C41.0936 76.928 41.0456 76.752 41.0016 76.544C40.9776 76.644 40.9536 76.738 40.9296 76.826C40.9056 76.914 40.8796 76.996 40.8516 77.072L38.9376 83H37.4736L34.7856 74.324H36.1356C36.2756 74.324 36.3916 74.358 36.4836 74.426C36.5796 74.49 36.6436 74.578 36.6756 74.69L38.1516 79.88C38.1836 80.008 38.2136 80.148 38.2416 80.3C38.2736 80.448 38.3056 80.604 38.3376 80.768C38.3696 80.6 38.4036 80.442 38.4396 80.294C38.4796 80.146 38.5216 80.008 38.5656 79.88L40.2696 74.69C40.3016 74.598 40.3636 74.514 40.4556 74.438C40.5516 74.362 40.6676 74.324 40.8036 74.324H41.2776C41.4176 74.324 41.5316 74.358 41.6196 74.426C41.7076 74.494 41.7736 74.582 41.8176 74.69L43.5156 79.88C43.5996 80.128 43.6756 80.414 43.7436 80.738C43.7956 80.422 43.8536 80.136 43.9176 79.88L45.3936 74.69C45.4176 74.59 45.4776 74.504 45.5736 74.432C45.6736 74.36 45.7916 74.324 45.9276 74.324H47.1936ZM49.879 83H48.259V74.324H49.879V83ZM59.1355 74.324V83H58.3075C58.1795 83 58.0715 82.98 57.9835 82.94C57.8995 82.896 57.8175 82.824 57.7375 82.724L53.2075 76.94C53.2315 77.204 53.2435 77.448 53.2435 77.672V83H51.8215V74.324H52.6675C52.7355 74.324 52.7935 74.328 52.8415 74.336C52.8935 74.34 52.9375 74.352 52.9735 74.372C53.0135 74.388 53.0515 74.414 53.0875 74.45C53.1235 74.482 53.1635 74.526 53.2075 74.582L57.7555 80.39C57.7435 80.25 57.7335 80.112 57.7255 79.976C57.7175 79.84 57.7135 79.714 57.7135 79.598V74.324H59.1355ZM68.7716 78.662C68.7716 79.298 68.6656 79.882 68.4536 80.414C68.2416 80.946 67.9436 81.404 67.5596 81.788C67.1756 82.172 66.7136 82.47 66.1736 82.682C65.6336 82.894 65.0336 83 64.3736 83H61.0676V74.324H64.3736C65.0336 74.324 65.6336 74.432 66.1736 74.648C66.7136 74.86 67.1756 75.158 67.5596 75.542C67.9436 75.922 68.2416 76.378 68.4536 76.91C68.6656 77.442 68.7716 78.026 68.7716 78.662ZM67.1156 78.662C67.1156 78.186 67.0516 77.76 66.9236 77.384C66.7996 77.004 66.6176 76.684 66.3776 76.424C66.1416 76.16 65.8536 75.958 65.5136 75.818C65.1776 75.678 64.7976 75.608 64.3736 75.608H62.6876V81.716H64.3736C64.7976 81.716 65.1776 81.646 65.5136 81.506C65.8536 81.366 66.1416 81.166 66.3776 80.906C66.6176 80.642 66.7996 80.322 66.9236 79.946C67.0516 79.566 67.1156 79.138 67.1156 78.662ZM79.0724 80.954C79.1604 80.954 79.2384 80.988 79.3064 81.056L79.9424 81.746C79.5904 82.182 79.1564 82.516 78.6404 82.748C78.1284 82.98 77.5124 83.096 76.7924 83.096C76.1484 83.096 75.5684 82.986 75.0524 82.766C74.5404 82.546 74.1024 82.24 73.7384 81.848C73.3744 81.456 73.0944 80.988 72.8984 80.444C72.7064 79.9 72.6104 79.306 72.6104 78.662C72.6104 78.01 72.7144 77.414 72.9224 76.874C73.1304 76.33 73.4224 75.862 73.7984 75.47C74.1784 75.078 74.6304 74.774 75.1544 74.558C75.6784 74.338 76.2584 74.228 76.8944 74.228C77.5264 74.228 78.0864 74.332 78.5744 74.54C79.0664 74.748 79.4844 75.02 79.8284 75.356L79.2884 76.106C79.2564 76.154 79.2144 76.196 79.1624 76.232C79.1144 76.268 79.0464 76.286 78.9584 76.286C78.8984 76.286 78.8364 76.27 78.7724 76.238C78.7084 76.202 78.6384 76.16 78.5624 76.112C78.4864 76.06 78.3984 76.004 78.2984 75.944C78.1984 75.884 78.0824 75.83 77.9504 75.782C77.8184 75.73 77.6644 75.688 77.4884 75.656C77.3164 75.62 77.1164 75.602 76.8884 75.602C76.5004 75.602 76.1444 75.672 75.8204 75.812C75.5004 75.948 75.2244 76.148 74.9924 76.412C74.7604 76.672 74.5804 76.992 74.4524 77.372C74.3244 77.748 74.2604 78.178 74.2604 78.662C74.2604 79.15 74.3284 79.584 74.4644 79.964C74.6044 80.344 74.7924 80.664 75.0284 80.924C75.2644 81.184 75.5424 81.384 75.8624 81.524C76.1824 81.66 76.5264 81.728 76.8944 81.728C77.1144 81.728 77.3124 81.716 77.4884 81.692C77.6684 81.668 77.8324 81.63 77.9804 81.578C78.1324 81.526 78.2744 81.46 78.4064 81.38C78.5424 81.296 78.6764 81.194 78.8084 81.074C78.8484 81.038 78.8904 81.01 78.9344 80.99C78.9784 80.966 79.0244 80.954 79.0724 80.954ZM85.668 75.902C85.62 75.986 85.568 76.048 85.512 76.088C85.46 76.124 85.394 76.142 85.314 76.142C85.23 76.142 85.138 76.112 85.038 76.052C84.942 75.988 84.826 75.918 84.69 75.842C84.554 75.766 84.394 75.698 84.21 75.638C84.03 75.574 83.816 75.542 83.568 75.542C83.344 75.542 83.148 75.57 82.98 75.626C82.812 75.678 82.67 75.752 82.554 75.848C82.442 75.944 82.358 76.06 82.302 76.196C82.246 76.328 82.218 76.474 82.218 76.634C82.218 76.838 82.274 77.008 82.386 77.144C82.502 77.28 82.654 77.396 82.842 77.492C83.03 77.588 83.244 77.674 83.484 77.75C83.724 77.826 83.97 77.908 84.222 77.996C84.474 78.08 84.72 78.18 84.96 78.296C85.2 78.408 85.414 78.552 85.602 78.728C85.79 78.9 85.94 79.112 86.052 79.364C86.168 79.616 86.226 79.922 86.226 80.282C86.226 80.674 86.158 81.042 86.022 81.386C85.89 81.726 85.694 82.024 85.434 82.28C85.178 82.532 84.864 82.732 84.492 82.88C84.12 83.024 83.694 83.096 83.214 83.096C82.938 83.096 82.666 83.068 82.398 83.012C82.13 82.96 81.872 82.884 81.624 82.784C81.38 82.684 81.15 82.564 80.934 82.424C80.718 82.284 80.526 82.128 80.358 81.956L80.832 81.182C80.872 81.126 80.924 81.08 80.988 81.044C81.052 81.004 81.12 80.984 81.192 80.984C81.292 80.984 81.4 81.026 81.516 81.11C81.632 81.19 81.77 81.28 81.93 81.38C82.09 81.48 82.276 81.572 82.488 81.656C82.704 81.736 82.962 81.776 83.262 81.776C83.722 81.776 84.078 81.668 84.33 81.452C84.582 81.232 84.708 80.918 84.708 80.51C84.708 80.282 84.65 80.096 84.534 79.952C84.422 79.808 84.272 79.688 84.084 79.592C83.896 79.492 83.682 79.408 83.442 79.34C83.202 79.272 82.958 79.198 82.71 79.118C82.462 79.038 82.218 78.942 81.978 78.83C81.738 78.718 81.524 78.572 81.336 78.392C81.148 78.212 80.996 77.988 80.88 77.72C80.768 77.448 80.712 77.114 80.712 76.718C80.712 76.402 80.774 76.094 80.898 75.794C81.026 75.494 81.21 75.228 81.45 74.996C81.69 74.764 81.986 74.578 82.338 74.438C82.69 74.298 83.094 74.228 83.55 74.228C84.062 74.228 84.534 74.308 84.966 74.468C85.398 74.628 85.766 74.852 86.07 75.14L85.668 75.902ZM92.254 75.902C92.206 75.986 92.154 76.048 92.098 76.088C92.046 76.124 91.98 76.142 91.9 76.142C91.816 76.142 91.724 76.112 91.624 76.052C91.528 75.988 91.412 75.918 91.276 75.842C91.14 75.766 90.98 75.698 90.796 75.638C90.616 75.574 90.402 75.542 90.154 75.542C89.93 75.542 89.734 75.57 89.566 75.626C89.398 75.678 89.256 75.752 89.14 75.848C89.028 75.944 88.944 76.06 88.888 76.196C88.832 76.328 88.804 76.474 88.804 76.634C88.804 76.838 88.86 77.008 88.972 77.144C89.088 77.28 89.24 77.396 89.428 77.492C89.616 77.588 89.83 77.674 90.07 77.75C90.31 77.826 90.556 77.908 90.808 77.996C91.06 78.08 91.306 78.18 91.546 78.296C91.786 78.408 92 78.552 92.188 78.728C92.376 78.9 92.526 79.112 92.638 79.364C92.754 79.616 92.812 79.922 92.812 80.282C92.812 80.674 92.744 81.042 92.608 81.386C92.476 81.726 92.28 82.024 92.02 82.28C91.764 82.532 91.45 82.732 91.078 82.88C90.706 83.024 90.28 83.096 89.8 83.096C89.524 83.096 89.252 83.068 88.984 83.012C88.716 82.96 88.458 82.884 88.21 82.784C87.966 82.684 87.736 82.564 87.52 82.424C87.304 82.284 87.112 82.128 86.944 81.956L87.418 81.182C87.458 81.126 87.51 81.08 87.574 81.044C87.638 81.004 87.706 80.984 87.778 80.984C87.878 80.984 87.986 81.026 88.102 81.11C88.218 81.19 88.356 81.28 88.516 81.38C88.676 81.48 88.862 81.572 89.074 81.656C89.29 81.736 89.548 81.776 89.848 81.776C90.308 81.776 90.664 81.668 90.916 81.452C91.168 81.232 91.294 80.918 91.294 80.51C91.294 80.282 91.236 80.096 91.12 79.952C91.008 79.808 90.858 79.688 90.67 79.592C90.482 79.492 90.268 79.408 90.028 79.34C89.788 79.272 89.544 79.198 89.296 79.118C89.048 79.038 88.804 78.942 88.564 78.83C88.324 78.718 88.11 78.572 87.922 78.392C87.734 78.212 87.582 77.988 87.466 77.72C87.354 77.448 87.298 77.114 87.298 76.718C87.298 76.402 87.36 76.094 87.484 75.794C87.612 75.494 87.796 75.228 88.036 74.996C88.276 74.764 88.572 74.578 88.924 74.438C89.276 74.298 89.68 74.228 90.136 74.228C90.648 74.228 91.12 74.308 91.552 74.468C91.984 74.628 92.352 74.852 92.656 75.14L92.254 75.902Z" fill="white"/>
<defs>
<linearGradient id="paint0_linear_151_606" x1="-2.91667" y1="20.16" x2="87.768" y2="72.4467" gradientUnits="userSpaceOnUse">
<stop stop-color="#2298BD"/>
<stop offset="1" stop-color="#0ED7B5"/>
</linearGradient>
</defs>
</svg>
